<svg version="1.2" xmlns="http://www.w3.org/2000/svg" viewBox="0 0 500 500" width="500" height="500"><defs><linearGradient id="P" gradientUnits="userSpaceOnUse"/><radialGradient id="g1" cx="6522.4" cy="1470.1" r="27235.6" href="#P"><stop stop-color="#66a5ff"/><stop offset="100" stop-color="#cce1ff" stop-opacity="0"/></radialGradient><linearGradient id="g2" x1="517" y1="505.5" x2="310.5" y2="299" href="#P"><stop stop-color="#e6f1ff"/><stop offset="100" stop-color="#fff"/></linearGradient><linearGradient id="g3" x1="426.7" y1="608" x2="220.2" y2="401.5" href="#P"><stop stop-color="#e6f1ff"/><stop offset="100" stop-color="#fff"/></linearGradient><linearGradient id="g4" x1="310.5" y1="570.1" x2="104" y2="363.6" href="#P"><stop stop-color="#e6f1ff"/><stop offset="100" stop-color="#fff"/></linearGradient><linearGradient id="g5" x1="574.3" y1="549.9" x2="367.8" y2="343.4" href="#P"><stop stop-color="#e6f1ff"/><stop offset="100" stop-color="#fff"/></linearGradient><linearGradient id="g6" x1="3265.3" y1="100.6" x2="3265.3" y2="7953.2" href="#P"><stop stop-color="#85b7ff"/><stop offset="100" stop-color="#0663f5"/></linearGradient><radialGradient id="g7" cx="268.4" cy="139.1" r="14459.3" href="#P"><stop stop-color="#107" stop-opacity="0"/><stop offset="100" stop-color="#107"/></radialGradient><linearGradient id="g8" x1="6090.9" y1="2563.3" x2="6090.9" y2="8055.9" href="#P"><stop stop-color="#0066fb"/><stop offset="100" stop-color="#120078"/></linearGradient><linearGradient id="g9" x1="6076.3" y1="2285.1" x2="6076.3" y2="86.1" href="#P"><stop stop-color="#0066fb"/><stop offset="100" stop-color="#120078"/></linearGradient><linearGradient id="g10" x1="317.2" y1="141.7" x2="317.2" y2="3193.8" href="#P"><stop stop-color="#0066fb"/><stop offset="100" stop-color="#120078"/></linearGradient><linearGradient id="g11" x1="1320" y1="1508.3" x2="5832.6" y2="12777.8" href="#P"><stop stop-color="#0643cf"/><stop offset="100" stop-color="#120078"/></linearGradient><linearGradient id="g12" x1="4614.8" y1="2896.6" x2="7488.3" y2="10176.6" href="#P"><stop stop-color="#e3efff"/><stop offset="100" stop-color="#3c8cff"/></linearGradient><linearGradient id="g13" x1="1060.5" y1="1154.4" x2="7342.1" y2="8979.8" href="#P"><stop stop-color="#85b7ff"/><stop offset="100" stop-color="#0663f5"/></linearGradient><linearGradient id="g14" x1="96.8" y1="1960.1" x2="1452.7" y2="4364.4" href="#P"><stop stop-color="#8bbbff"/><stop offset="100" stop-color="#0260f5"/></linearGradient><linearGradient id="g15" x1="184.3" y1="11324.5" x2="17205.9" y2="27073.9" href="#P"><stop stop-color="#8bbbff"/><stop offset="100" stop-color="#0260f5"/></linearGradient><linearGradient id="g16" x1="174.6" y1="11331.7" x2="17196.2" y2="27081.1" href="#P"><stop stop-color="#8bbbff"/><stop offset="100" stop-color="#0260f5"/></linearGradient><linearGradient id="g17" x1="163.3" y1="11338.2" x2="17184.9" y2="27087.6" href="#P"><stop stop-color="#8bbbff"/><stop offset="100" stop-color="#0260f5"/></linearGradient><linearGradient id="g18" x1="196" y1="2446.3" x2="3816.8" y2="5785.9" href="#P"><stop stop-color="#8bbbff"/><stop offset="100" stop-color="#0260f5"/></linearGradient><linearGradient id="g19" x1="187.9" y1="2450.3" x2="3808.8" y2="5790" href="#P"><stop stop-color="#8bbbff"/><stop offset="100" stop-color="#0260f5"/></linearGradient></defs><style>.a{fill:none;stroke:#cce1ff;stroke-linecap:round;stroke-width:3;stroke-dasharray:0}.b{fill:none;stroke:#cce1ff;stroke-linecap:round;stroke-width:3;stroke-dasharray:3}.c{fill:none;stroke:#cce1ff;stroke-linecap:round;stroke-width:3}.d{fill:none;stroke:#cce1ff;stroke-width:3}.e{fill:none;stroke:url(#g1);stroke-width:3}.f{fill:#79b0ff}.g{fill:#66a5ff}.h{opacity:.1;fill:#0069ff}.i{opacity:.2;fill:#0069ff}.j{opacity:.3;fill:#0069ff}.k{fill:none;stroke:#120078;stroke-linecap:round;stroke-linejoin:round;stroke-opacity:.5;stroke-width:3;stroke-dasharray:0}.l{fill:url(#g2)}.m{fill:#120078}.n{fill:url(#g3)}.o{fill:url(#g4)}.p{fill:url(#g5)}.q{fill:url(#g6)}.r{opacity:.2;fill:none;stroke:url(#g7);stroke-linecap:round;stroke-linejoin:round;stroke-width:3}.s{fill:none;stroke:url(#g8);stroke-linecap:round;stroke-linejoin:round;stroke-width:3}.t{fill:none;stroke:url(#g9);stroke-linecap:round;stroke-linejoin:round;stroke-width:3}.u{fill:none;stroke:url(#g10);stroke-linecap:square;stroke-linejoin:round;stroke-width:3}.v{fill:#107}.w{fill:url(#g11)}.x{fill:url(#g12)}.y{fill:url(#g13)}.z{fill:url(#g14)}.A{fill:#fff}.B{opacity:.2;fill:url(#g15)}.C{opacity:.4;fill:url(#g16)}.D{fill:url(#g17)}.E{fill:#d5e6ff}.F{fill:#cce1ff}.G{fill:#003fa3}.H{fill:#448cfa}.I{opacity:.3;fill:url(#g18)}.J{fill:url(#g19)}</style><path class="a" d="m240.4 336.5c-20.6-5-39.1-18.5-49.4-36.3"/><path class="b" d="m261.3 187.7c35.3 2.2 64.4 28.6 69.9 63.6"/><path class="a" d="m358 247.1c0.5 5.1 0.8 11.7 0.8 15.9 0 30.7-11.9 57.1-33.1 75.7"/><path class="c" d="m297.5 357.9q-4.9 1.8-10 3.1-5 1.4-10.1 2.3-5.2 0.9-10.3 1.4-5.2 0.5-10.4 0.5c-56.5 0-102.2-45.7-102.2-102.2q-0.1-2.6 0.1-5.2 0.1-2.6 0.4-5.2 0.2-2.6 0.6-5.2 0.5-2.5 1-5.1 1.2-5 2.8-9.8 1.6-4.9 3.7-9.6 2.1-4.7 4.6-9.1 2.5-4.5 5.5-8.7"/><path class="d" d="m340.1 141.8c-54.7-37.8-127.8-34.3-178.6 8.5"/><path class="e" d="m227.1 71.1c-66.4-2-125.9 40.8-145.1 104.4"/><circle class="f" cx="126.6" cy="105.5" r="6.5"/><path fill-rule="evenodd" class="g" d="m354.4 227.4c0.9 0 1.8 0.5 2.1 1.4 0.4 0.9 0.2 1.9-0.5 2.5-0.7 0.7-1.7 0.9-2.5 0.5-0.9-0.3-1.5-1.2-1.5-2.1q0-0.5 0.2-0.9 0.1-0.5 0.5-0.8 0.3-0.3 0.8-0.5 0.4-0.2 0.9-0.1zm-109.1-41.7c0.9 0 1.8 0.6 2.1 1.4 0.4 0.9 0.2 1.9-0.5 2.6-0.6 0.6-1.6 0.8-2.5 0.5-0.9-0.4-1.4-1.3-1.4-2.2q-0.1-0.5 0.1-0.9 0.2-0.4 0.5-0.7 0.3-0.4 0.8-0.6 0.4-0.1 0.9-0.1z"/><circle class="h" cx="362.2" cy="423.3" r="6.5"/><circle class="i" cx="373.5" cy="399.9" r="4.8"/><circle class="h" cx="358.9" cy="388.6" r="3.2"/><circle class="i" cx="142" cy="420" r="3.2"/><circle class="h" cx="127.4" cy="398.3" r="6.5"/><circle class="h" cx="121" cy="172.4" r="3.2"/><circle class="i" cx="134.7" cy="154.7" r="4"/><circle class="i" cx="364.6" cy="100.6" r="4"/><circle class="h" cx="355.7" cy="85.3" r="3.2"/><circle class="j" cx="117.8" cy="140.1" r="3.2"/><path class="k" d="m226.7 393.4v-57.9m-116.2 19v-32.4m206.4-25.5v-95.7m57.8 134.6v-19.9"/><circle class="l" cx="316.9" cy="305.5" r="6.5"/><circle class="m" cx="316.9" cy="305.5" r="3.2"/><circle class="n" cx="226.7" cy="407.9" r="6.5"/><circle class="m" cx="226.7" cy="407.9" r="3.2"/><circle class="o" cx="110.5" cy="370" r="6.5"/><circle class="m" cx="110.5" cy="370" r="3.2"/><circle class="p" cx="374.3" cy="349.9" r="6.5"/><circle class="m" cx="374.3" cy="349.9" r="3.2"/><path fill-rule="evenodd" class="q" d="m282.5 119.8l34.7-19.2 34.7 19.2v42.3l-34.7 19.2-34.7-19.2c0 0 0-42.3 0-42.3z"/><path class="r" d="m268.4 166.2l48.5-27.1 48.4 27.1"/><path class="s" d="m365.3 113.2v53l-48.4 27-48.5-27v-53"/><path class="t" d="m365.6 113.1l-48.4 27-48.4-27 48.4-27z"/><path class="u" d="m317.2 141.7l0.2 49.7"/><path fill-rule="evenodd" class="v" d="m407.5 220.5c0.1 0 0.3 0.2 0.2 0.2l-1.7 0.9c0 0.1-0.5 0.1-0.6 0.1l-0.1-0.1v60.7c0 1.6-1 3.5-2.1 4.2l-62.3 35.9c-1.2 0.7-2.1 0-2.1-1.6v-51.9c0-1.6 0.9-3.5 2.1-4.1l40.7-23.5v-7.6c0-0.7 0.5-1.7 1.1-2l21.5-12.5q0.2-0.1 0.3-0.1c0.1 0 0.2 0 0.3 0q0 0 0 0 0.1 0 0.1 0 0 0.1 0 0.1 0.1 0 0.1 0z"/><path fill-rule="evenodd" class="w" d="m407.9 283.7c0 1.6-1 3.5-2.2 4.2l-62.2 36c-1.2 0.7-2.2 0-2.2-1.6v-52c0-1.6 1-3.5 2.2-4.2l40.7-23.5v-7.6c0-0.7 0.5-1.7 1.1-2l21.5-12.5c0.6-0.3 1.1 0 1.1 0.8z"/><path fill-rule="evenodd" class="x" d="m344.1 321.1l2.1 1.2q0.1 0.1-0.1 0.2l-3 1.7c-0.3 0.2-0.8 0.2-1 0l-2-1.1c-0.5-0.2-0.6-0.8-0.5-1.8l8.6-46.6c0.3-1.4 1.3-3 2.2-3.6l63-36.4q0.5-0.3 0.8-0.2 0.2 0.1 0.3 0.1l2.2 1.3q0.1 0.1 0 0.2l-2.3 1.3-8.3 45.5c-0.3 1.4-1.3 3-2.3 3.6l-59.7 34.6z"/><path fill-rule="evenodd" class="y" d="m350.5 276c0.3-1.5 1.3-3.1 2.2-3.6l63-36.5c0.9-0.5 1.5 0.2 1.2 1.6l-8.6 46.6c-0.2 1.5-1.2 3.1-2.2 3.6l-62.9 36.5c-1 0.5-1.5-0.2-1.3-1.6z"/><path fill-rule="evenodd" class="z" d="m96.8 257.8c0-1.3 0.7-1.8 1.6-1.3l29.8 17.7c0.9 0.5 1.7 2 1.7 3.2v45.2c0 1.2-0.8 1.8-1.7 1.2l-29.8-17.6c-0.9-0.6-1.6-2-1.6-3.3z"/><path fill-rule="evenodd" class="A" d="m106.5 269.4c0-0.2 0.1-0.3 0.2-0.2l18.9 11.3c0.1 0.1 0.2 0.3 0.2 0.4v1c0 0.2-0.1 0.2-0.2 0.2l-18.9-11.3c-0.1-0.1-0.2-0.3-0.2-0.4zm0 4.8c0-0.2 0.1-0.3 0.2-0.2l6.8 4c0.1 0.1 0.2 0.3 0.2 0.5v0.9c0 0.2-0.1 0.3-0.2 0.2l-6.8-4c-0.1-0.1-0.2-0.3-0.2-0.5zm-4.9-5.6c0.9 0.5 1.6 1.9 1.6 3.2 0 1.2-0.7 1.8-1.6 1.2-0.9-0.5-1.6-1.9-1.6-3.2 0-1.2 0.7-1.7 1.6-1.2z"/><path fill-rule="evenodd" class="A" d="m101.6 269.3c0.5 0.3 0.8 1 0.8 1.6 0 0.6-0.3 0.9-0.8 0.6-0.4-0.2-0.8-1-0.8-1.6 0-0.6 0.4-0.9 0.8-0.6zm4.9 14.6c0-0.2 0.1-0.2 0.2-0.2l18.9 11.3c0.1 0.1 0.2 0.3 0.2 0.5v0.9c0 0.2-0.1 0.3-0.2 0.2l-18.9-11.3c-0.1 0-0.2-0.3-0.2-0.4zm0 4.8c0-0.2 0.1-0.2 0.2-0.2l6.8 4c0.1 0.1 0.2 0.3 0.2 0.5v0.9c0 0.2-0.1 0.3-0.2 0.2l-6.8-4c-0.1-0.1-0.2-0.3-0.2-0.4zm-4.9-5.7c0.9 0.5 1.6 2 1.6 3.2 0 1.2-0.7 1.8-1.6 1.2-0.9-0.5-1.6-1.9-1.6-3.1 0-1.3 0.7-1.8 1.6-1.3z"/><path fill-rule="evenodd" class="A" d="m101.6 283.8c0.5 0.3 0.8 1 0.8 1.6 0 0.6-0.3 0.9-0.8 0.6-0.4-0.2-0.8-0.9-0.8-1.6 0-0.6 0.4-0.9 0.8-0.6zm4.9 14.6c0-0.1 0.1-0.2 0.2-0.1l18.9 11.2c0.1 0.1 0.2 0.3 0.2 0.5v0.9c0 0.2-0.1 0.3-0.2 0.2l-18.9-11.3c-0.1 0-0.2-0.2-0.2-0.4zm0 4.8c0-0.1 0.1-0.2 0.2-0.1l6.8 4c0.1 0 0.2 0.2 0.2 0.4v1c0 0.1-0.1 0.2-0.2 0.1l-6.8-4c-0.1 0-0.2-0.3-0.2-0.4zm-4.9-5.7c0.9 0.6 1.6 2 1.6 3.2 0 1.2-0.7 1.8-1.6 1.3-0.9-0.6-1.6-2-1.6-3.2 0-1.2 0.7-1.8 1.6-1.3z"/><path fill-rule="evenodd" class="A" d="m101.6 298.3c0.5 0.3 0.8 1 0.8 1.6 0 0.6-0.3 0.9-0.8 0.7-0.4-0.3-0.8-1-0.8-1.6 0-0.6 0.4-0.9 0.8-0.7z"/><path fill-rule="evenodd" class="B" d="m301.5 332.2c0 4.1-2.5 5.9-5.5 4.2l-106.2-61.3c-3-1.7-5.5-6.5-5.5-10.5v-96.1c0-4.1 2.5-6 5.5-4.2l106.2 61.3c3 1.7 5.5 6.5 5.5 10.5z"/><path fill-rule="evenodd" class="C" d="m291.8 339.5c0 4-2.5 5.9-5.5 4.1l-106.2-61.2c-3-1.8-5.5-6.5-5.5-10.6v-96.1c0-4 2.5-5.9 5.5-4.1l106.2 61.2c3 1.8 5.5 6.5 5.5 10.6z"/><path fill-rule="evenodd" class="D" d="m280.5 345.9c0 4.1-2.5 6-5.5 4.2l-106.1-61.3c-3.1-1.7-5.6-6.5-5.6-10.5v-96.1c0-4.1 2.5-5.9 5.6-4.2l106.1 61.3c3 1.7 5.5 6.5 5.5 10.5z"/><path fill-rule="evenodd" class="v" d="m168.9 288.8c-3.1-1.7-5.6-6.5-5.6-10.5v-89.4l27.9 15.9v96.9z"/><path fill-rule="evenodd" class="E" d="m280.5 256.5l-117.2-67.6v-6.7c0-4.1 2.5-5.9 5.6-4.2l106.1 61.3c3 1.7 5.5 6.5 5.5 10.5z"/><path fill-rule="evenodd" class="F" d="m182.6 216l-11.2-6.4c-1.7-1-3.1-3.7-3.1-6 0-2.3 1.4-3.3 3.1-2.3l11.2 6.4c1.7 1 3.1 3.7 3.1 6 0 2.3-1.4 3.3-3.1 2.3zm-2 10.9l-9.3-5.3c-0.9-0.6-1.6-2-1.6-3.3 0-1.2 0.7-1.8 1.6-1.2l9.3 5.3c1 0.6 1.7 2 1.7 3.3 0 1.2-0.7 1.8-1.7 1.2z"/><path fill-rule="evenodd" class="G" d="m212.1 231.4l-10-5.8c-1.3-0.8-2.3-2.8-2.3-4.5 0-1.7 1-2.5 2.3-1.7l10 5.8c1.3 0.7 2.4 2.7 2.4 4.4 0 1.7-1.1 2.5-2.4 1.8z"/><path fill-rule="evenodd" class="A" d="m206 241.6l-3.9-2.3c-1-0.5-1.7-2-1.7-3.2 0-1.2 0.7-1.8 1.7-1.3l3.9 2.3c0.9 0.5 1.7 2 1.7 3.2 0 1.2-0.8 1.8-1.7 1.3zm5.4 12.4l-9.3-5.4c-1-0.5-1.7-2-1.7-3.2 0-1.2 0.7-1.8 1.7-1.3l9.3 5.4c0.9 0.5 1.7 2 1.7 3.2 0 1.3-0.8 1.8-1.7 1.3zm-2.4 7.9l-6.9-4c-1-0.5-1.7-1.9-1.7-3.2 0-1.2 0.7-1.8 1.7-1.3l6.9 4c0.9 0.6 1.7 2 1.7 3.3 0 1.2-0.8 1.8-1.7 1.2z"/><path fill-rule="evenodd" class="G" d="m233.1 243.5l-10-5.8c-1.3-0.8-2.4-2.8-2.4-4.5 0-1.7 1.1-2.5 2.4-1.7l10 5.8c1.3 0.7 2.3 2.7 2.3 4.4 0 1.7-1 2.5-2.3 1.8z"/><path fill-rule="evenodd" class="A" d="m227 253.7l-4-2.3c-0.9-0.5-1.7-2-1.7-3.2 0-1.2 0.8-1.8 1.7-1.3l4 2.3c0.9 0.5 1.6 2 1.6 3.2 0 1.2-0.7 1.8-1.6 1.3zm5.3 12.4l-9.3-5.4c-0.9-0.5-1.7-2-1.7-3.2 0-1.2 0.8-1.8 1.7-1.3l9.3 5.4c1 0.5 1.7 2 1.7 3.2 0 1.3-0.7 1.8-1.7 1.3zm-2.4 7.9l-6.9-4c-0.9-0.5-1.7-1.9-1.7-3.2 0-1.2 0.8-1.8 1.7-1.3l6.9 4c1 0.6 1.7 2 1.7 3.3 0 1.2-0.7 1.8-1.7 1.2z"/><path fill-rule="evenodd" class="G" d="m254.1 255.6l-10.1-5.8c-1.3-0.8-2.3-2.8-2.3-4.5 0-1.7 1-2.5 2.3-1.7l10.1 5.8c1.2 0.7 2.3 2.7 2.3 4.4 0 1.7-1.1 2.5-2.3 1.8z"/><path fill-rule="evenodd" class="A" d="m247.9 265.8l-3.9-2.3c-0.9-0.5-1.7-2-1.7-3.2 0-1.2 0.8-1.8 1.7-1.3l3.9 2.3c0.9 0.5 1.7 2 1.7 3.2 0 1.2-0.8 1.8-1.7 1.3zm5.4 12.4l-9.3-5.4c-0.9-0.5-1.7-2-1.7-3.2 0-1.2 0.8-1.8 1.7-1.3l9.3 5.4c0.9 0.5 1.7 2 1.7 3.2 0 1.3-0.8 1.8-1.7 1.3zm-2.4 7.9l-6.9-4c-0.9-0.5-1.7-1.9-1.7-3.2 0-1.2 0.8-1.8 1.7-1.3l6.9 4c0.9 0.6 1.7 2 1.7 3.2 0 1.3-0.8 1.9-1.7 1.3z"/><path fill-rule="evenodd" class="F" d="m180.6 236.2l-9.3-5.3c-0.9-0.6-1.6-2-1.6-3.2 0-1.3 0.7-1.8 1.6-1.3l9.3 5.4c1 0.5 1.7 1.9 1.7 3.2 0 1.2-0.7 1.8-1.7 1.2zm0 9.4l-9.3-5.4c-0.9-0.5-1.6-2-1.6-3.2 0-1.3 0.7-1.8 1.6-1.3l9.3 5.4c1 0.5 1.7 1.9 1.7 3.2 0 1.2-0.7 1.8-1.7 1.3zm0 9.3l-9.3-5.4c-0.9-0.5-1.6-2-1.6-3.2 0-1.2 0.7-1.8 1.6-1.3l9.3 5.4c1 0.5 1.7 2 1.7 3.2 0 1.2-0.7 1.8-1.7 1.3z"/><path fill-rule="evenodd" class="H" d="m171.2 184.3c1 0.5 1.7 2 1.7 3.2 0 1.2-0.7 1.8-1.7 1.3-0.9-0.6-1.6-2-1.6-3.2 0-1.2 0.7-1.8 1.6-1.3z"/><path fill-rule="evenodd" class="A" d="m178.2 188.4c1 0.5 1.7 1.9 1.7 3.1 0 1.3-0.7 1.8-1.7 1.3-0.9-0.5-1.6-2-1.6-3.2 0-1.2 0.7-1.8 1.6-1.2z"/><path fill-rule="evenodd" class="H" d="m178.2 188.4c1 0.5 1.7 1.9 1.7 3.1 0 1.3-0.7 1.8-1.7 1.3-0.9-0.5-1.6-2-1.6-3.2 0-1.2 0.7-1.8 1.6-1.2zm7 4c0.9 0.5 1.7 1.9 1.7 3.2 0 1.2-0.8 1.8-1.7 1.2-0.9-0.5-1.6-1.9-1.6-3.2 0-1.2 0.7-1.7 1.6-1.2z"/><path fill-rule="evenodd" class="I" d="m198.4 79.9l49.3 28.5c1.3 0.8 2.3 2.8 2.3 4.6v44.4c0 1.8-1 2.6-2.3 1.8l-49.3-28.5c-1.3-0.8-2.4-2.8-2.4-4.5v-44.5c0-1.7 1.1-2.5 2.4-1.8z"/><path fill-rule="evenodd" class="J" d="m190.3 84l49.3 28.5c1.3 0.7 2.4 2.8 2.4 4.5v44.4c0 1.8-1.1 2.6-2.4 1.8l-49.3-28.5c-1.3-0.7-2.4-2.8-2.4-4.5v-44.4c0-1.8 1.1-2.6 2.4-1.8z"/><path class="A" d="m205.2 127.2q-0.2-0.1-0.4-0.5l-7.4-11.7q0-0.1-0.1-0.2-0.1-0.1-0.1-0.2-0.1-0.2-0.1-0.3-0.1-0.1-0.1-0.2-0.1-0.1-0.1-0.2 0-0.1-0.1-0.2 0-0.2 0-0.3 0-0.1 0-0.2v-0.8q0-0.4 0.1-0.7 0.2-0.2 0.5-0.4l7.4-3.3q0.2-0.2 0.4-0.1 0.2 0.1 0.4 0.4 0.1 0.2 0.1 0.5v2.5q0 0.5-0.2 0.6-0.1 0.2-0.4 0.3l-5.2 2.3 5.2 8.3q0.3 0.4 0.4 0.7 0.2 0.4 0.2 0.7v2.6q0 0.3-0.2 0.4-0.1 0.1-0.3 0zm7.4 8.8q-0.2-0.1-0.3-0.3-0.1-0.1-0.1-0.2 0 0 0-0.1-0.1-0.1-0.1-0.2 0 0 0-0.1 0-0.2 0.1-0.3l7.1-22.5q0-0.1 0.1-0.1 0-0.1 0-0.1 0.1 0 0.1-0.1 0 0 0.1 0 0.1-0.2 0.4 0l1.4 0.8q0.2 0.1 0.3 0.4 0.1 0.2 0.1 0.5 0 0.2 0 0.4l-7.2 22.4q0 0.1-0.1 0.1 0 0.1 0 0.1 0 0.1-0.1 0.1 0 0 0 0.1-0.2 0.1-0.5-0.1zm11.3 1.7q-0.1-0.1-0.3-0.4 0-0.1 0-0.1-0.1-0.1-0.1-0.2 0 0 0-0.1 0-0.1 0-0.1v-2.6q0-0.4 0.1-0.5 0.2-0.2 0.4-0.3l5.3-2.3-5.3-8.3q0 0-0.1-0.1 0-0.1-0.1-0.2 0-0.1-0.1-0.2 0-0.1-0.1-0.2 0-0.1 0-0.2-0.1-0.1-0.1-0.2 0-0.1 0-0.2 0-0.1 0-0.2v-2.5q0-0.3 0.1-0.4 0.2-0.1 0.3 0 0.2 0.1 0.5 0.5l7.3 11.7q0.4 0.5 0.5 0.9 0.1 0.1 0.1 0.2 0 0.2 0 0.3 0 0.1 0.1 0.2 0 0.1 0 0.2v0.8q0 0.4-0.2 0.7-0.1 0.2-0.5 0.4l-7.3 3.3q-0.1 0.1-0.1 0.1-0.1 0-0.2 0 0 0-0.1 0 0 0-0.1 0z"/></svg>