<svg version="1.2" xmlns="http://www.w3.org/2000/svg" viewBox="0 0 398 369" width="398" height="369"><style>.a{fill:#334483}.b{fill:#fff}.c{fill:#20306a}.d{fill:#fff;stroke:#fff;stroke-width:.5}.e{fill:#56b0da}.f{fill:#e6e6e6}.g{fill:#263238}.h{fill:#31dddb}.i{fill:#dd3d31}.j{fill:#31ddd3}.k{fill:#e0e0e0}.l{fill:#56b0da;stroke:#dd3d31;stroke-width:.5}.m{fill:#56dacc;stroke:#dd3d31;stroke-width:.5}.n{fill:#141313}.o{fill:#ffbe9d}.p{fill:#eb996e}.q{fill:#291d0d}.r{fill:#455a64}.s{fill:#54341c}</style><rect class="a" x="186.4" y="280.1" width="144.3" height="88.9" rx="2.2"></rect><path class="b" d="m260 315.6l11.9 6.3-11.4 7.5-11.4 7.5-0.4-13.8-0.5-13.9z"/><path class="b" d="m320.3 360c0 0.1-27.6 0.3-61.8 0.3-34.2 0-61.8-0.1-61.8-0.2 0-0.1 27.6-0.3 61.8-0.3 34.2 0 61.8 0.1 61.8 0.2z"/><circle class="b" cx="197.4" cy="360.1" r="1.6"/><rect class="c" x="155.9" y="274.6" width="153" height="94.2" rx="2.2"></rect><path class="b" d="m297.8 359.3c0 0.1-29.3 0.3-65.5 0.3-36.2 0-65.5-0.1-65.5-0.2 0-0.1 29.3-0.3 65.5-0.3 36.2 0 65.5 0 65.5 0.2z"/><circle class="b" cx="167.4" cy="359.3" r="1.6"/><path class="d" d="m235.2 322.7c0.1-0.2 0.3-0.4 0.4-0.5 0.4-0.4 0.8-0.8 1.3-1.3 1.1-1.1 2.7-2.6 4.4-4.2v0.2c-1.8-1.6-3.3-3.1-4.4-4.2l-1.3-1.3c-0.2-0.1-0.3-0.3-0.5-0.5 0.2 0.1 0.4 0.3 0.5 0.4l1.4 1.2c1.2 1 2.7 2.5 4.5 4.1l0.1 0.1-0.1 0.1c-1.8 1.6-3.3 3.1-4.5 4.2l-1.4 1.2c0 0.2-0.2 0.4-0.4 0.5z"/><path class="d" d="m221.8 310.9c-0.1 0.2-0.3 0.4-0.4 0.5l-1.3 1.3c-1.1 1.1-2.7 2.6-4.4 4.2v-0.2c1.8 1.6 3.3 3.1 4.4 4.2l1.3 1.3c0.2 0.1 0.3 0.3 0.5 0.5-0.2-0.1-0.4-0.3-0.5-0.4-0.4-0.3-0.8-0.7-1.4-1.2-1.2-1-2.7-2.5-4.5-4.1l-0.1-0.1 0.1-0.1c1.8-1.6 3.3-3.1 4.5-4.2l1.4-1.2c0-0.3 0.2-0.4 0.4-0.5z"/><path class="d" d="m225.2 325.5c-0.1 0 1.3-4 3.2-8.8 1.8-4.8 3.4-8.8 3.4-8.7 0.1 0-1.3 4-3.2 8.8-1.9 4.8-3.3 8.7-3.4 8.7z"/><rect class="e" x="164" y="314.9" width="87.7" height="54" rx="2.1"></rect><path class="b" d="m245.4 363.6c0 0.1-16.8 0.3-37.6 0.3-20.8 0-37.6-0.1-37.6-0.2 0-0.1 16.8-0.3 37.6-0.3 20.8 0 37.6 0 37.6 0.2z"/><path class="b" d="m171.6 363.6c0 0.5-0.4 0.9-1 0.9-0.5 0-0.9-0.4-0.9-1 0-0.5 0.4-0.9 1-0.9 0.5 0 0.9 0.5 0.9 1z"/><path class="f" d="m0 1.3h393.2v250.5h-393.2z"/><path class="g" d="m393.5 250.8c0-1.9-0.1-96.8-0.2-250.5l0.2 0.2-393.2 0.1 0.3-0.3c0 88.7 0 173.4 0 250.5l-0.3-0.3 393.2 0.3-393.2 0.3h-0.3v-0.3c0-77.1 0-161.8 0-250.5v-0.3h0.3l393.2 0.1h0.2v0.2c-0.1 153.7-0.2 248.6-0.2 250.5z"/><path class="g" d="m393.7 15.3c0 0.2-88.1 0.3-196.8 0.3-108.7 0-196.9-0.1-196.9-0.3 0-0.2 88.1-0.3 196.9-0.3 108.8 0 196.8 0.2 196.8 0.3z"/><circle class="g" cx="10.4" cy="6" r="2.5"/><circle class="g" cx="18.3" cy="6" r="2.5"/><circle class="g" cx="26" cy="6" r="2.5"/><path class="e" d="m26.4 150.3h81.1v78.5h-81.1z"/><g style="opacity:.3"><path  d="m32.7 222l22.4-40.3 18.3 25.8 11.2-13.7 16.6 28.2z"/></g><g style="opacity:.3"><circle  cx="75.4" cy="173.9" r="5.8"/></g><g style="opacity:.3"><path  d="m101.2 222.3q0-0.1 0-0.3 0-0.3 0-0.9c0-0.8 0-2 0-3.5 0-3.1 0-7.6-0.1-13.3 0-11.5-0.1-27.8-0.2-47.4l0.3 0.3-68.5 0.1 0.4-0.4v17.6c0 5.8 0 11.4 0 16.9 0 11 0 21.4 0 30.9l-0.3-0.3 49.5 0.2 14 0.1h3.7 1 0.3q-0.1 0-0.3 0h-0.9-3.6l-13.9 0.1-49.7 0.2h-0.3v-0.3c0-9.5 0-19.9 0-30.9 0-5.5 0-11.1 0-16.9v-17.5l0.4-0.4h68.5 0.3v0.3c-0.1 19.7-0.1 36.1-0.2 47.6 0 5.7-0.1 10.2-0.1 13.2 0 1.5 0 2.6 0 3.5 0 0.4 0 0.6 0 0.9-0.1 0-0.2 0.1-0.3 0.2z"/></g><path class="e" d="m118.7 165.2h54.9v2.8h-54.9z"/><path class="g" d="m192.7 177.1c0 0.2-16.5 0.3-36.8 0.3-20.3 0-36.8-0.1-36.8-0.3 0-0.2 16.5-0.3 36.8-0.3 20.3 0 36.8 0.1 36.8 0.3z"/><path class="g" d="m192.7 184.8c0 0.2-16.5 0.3-36.8 0.3-20.3 0-36.9-0.2-36.9-0.3 0-0.1 16.5-0.3 36.8-0.3 20.3 0 36.9 0.1 36.9 0.3z"/><path class="g" d="m192.7 192.5c0 0.2-16.5 0.3-36.8 0.3-20.3 0-36.8-0.1-36.8-0.3 0-0.2 16.5-0.3 36.8-0.3 20.3 0 36.8 0.1 36.8 0.3z"/><path class="g" d="m192.7 200.2c0 0.1-16.5 0.3-36.8 0.3-20.3 0-36.8-0.1-36.8-0.3 0-0.2 16.5-0.3 36.8-0.3 20.3 0 36.8 0.1 36.8 0.3z"/><path class="g" d="m192.7 207.9c0 0.1-16.5 0.3-36.8 0.3-20.3 0-36.9-0.2-36.9-0.3 0-0.1 16.5-0.3 36.8-0.3 20.3 0 36.9 0.1 36.9 0.3z"/><path class="g" d="m156.9 214.9c0 0.1-8.5 0.3-18.9 0.3-10.4 0-18.9-0.1-18.9-0.3 0-0.2 8.5-0.3 18.9-0.3 10.4 0 18.9 0.2 18.9 0.3z"/><path class="e" d="m296 160.6h54.9v2.8h-54.9z"/><path class="g" d="m370 172.4c0 0.2-16.5 0.3-36.8 0.3-20.3 0-36.8-0.1-36.8-0.3 0-0.2 16.5-0.3 36.8-0.3 20.3 0 36.8 0.2 36.8 0.3z"/><path class="g" d="m370 180.1c0 0.2-16.5 0.3-36.8 0.3-20.3 0-36.8-0.1-36.8-0.3 0-0.2 16.5-0.3 36.8-0.3 20.3 0 36.8 0.2 36.8 0.3z"/><path class="g" d="m370 187.8c0 0.1-16.5 0.3-36.8 0.3-20.3 0-36.8-0.1-36.8-0.3 0-0.2 16.5-0.3 36.8-0.3 20.3 0 36.8 0.2 36.8 0.3z"/><path class="g" d="m370 195.5c0 0.1-16.5 0.3-36.8 0.3-20.3 0-36.8-0.1-36.8-0.3 0-0.2 16.5-0.3 36.8-0.3 20.3 0 36.8 0.2 36.8 0.3z"/><path class="g" d="m370 203.2c0 0.2-16.5 0.3-36.8 0.3-20.3 0-36.8-0.1-36.8-0.3 0-0.2 16.5-0.3 36.8-0.3 20.3 0 36.8 0.2 36.8 0.3z"/><path class="g" d="m334.2 210.3c0 0.1-8.5 0.3-18.9 0.3-10.4 0-18.9-0.1-18.9-0.3 0-0.2 8.5-0.3 18.9-0.3 10.4 0 18.9 0.1 18.9 0.3z"/><path class="g" d="m284.7 231.4q1.3-0.5 2.7-0.3c-0.6 0.6-0.2 0.2-0.3 0.3v-0.5-0.5c0-0.3 0-0.6 0.1-0.9 0-0.5 0.1-0.8 0.2-0.8 0.1 0 0.1 0.3 0.2 0.8 0 0.3 0 0.5 0.1 0.9v1l-0.3 0.3q-1.3 0.1-2.7-0.3z"/><path class="g" d="m273 231.4c1.9-0.4 3.9-0.4 5.8 0-1.9 0.4-3.9 0.4-5.8 0z"/><path class="g" d="m261.4 231.4c1.9-0.4 3.9-0.4 5.8 0-1.9 0.4-3.9 0.4-5.8 0z"/><path class="g" d="m249.8 231.4c1.9-0.4 3.9-0.4 5.8 0-1.9 0.4-3.9 0.4-5.8 0z"/><path class="g" d="m238.1 231.4c1.9-0.4 3.9-0.4 5.8 0-1.9 0.4-3.8 0.4-5.8 0z"/><path class="g" d="m226.5 231.4c1.9-0.4 3.9-0.4 5.8 0-1.9 0.4-3.9 0.4-5.8 0z"/><path class="g" d="m214.8 231.4c1.9-0.4 3.9-0.4 5.8 0-1.9 0.4-3.8 0.4-5.8 0z"/><path class="g" d="m206.3 228.7q0.4 1.4 0.3 2.7l-0.3-0.3h1.1l0.9 0.1c0.5 0.1 0.8 0.1 0.8 0.2 0 0.1-0.3 0.1-0.8 0.2l-0.9 0.1h-1.1c-0.1-0.1 0.3 0.3-0.3-0.3q-0.1-1.3 0.3-2.7z"/><path class="g" d="m206.3 217.5c0.4 1.9 0.4 3.8 0 5.6-0.4-1.9-0.4-3.8 0-5.6z"/><path class="g" d="m206.3 206.2c0.4 1.9 0.4 3.8 0 5.6-0.4-1.8-0.4-3.7 0-5.6z"/><path class="g" d="m206.3 195c0.4 1.9 0.4 3.8 0 5.6-0.3-0.9-0.4-1.9-0.3-2.8-0.1-0.9 0-1.9 0.3-2.8z"/><path class="g" d="m206.3 183.8c0.4 1.9 0.4 3.8 0 5.6-0.4-1.9-0.4-3.8 0-5.6z"/><path class="g" d="m206.3 172.5c0.4 1.9 0.4 3.8 0 5.6-0.3-0.9-0.4-1.9-0.3-2.8-0.1-0.9 0-1.9 0.3-2.8z"/><path class="g" d="m206.3 161.3c0.4 1.9 0.4 3.8 0 5.6-0.4-1.8-0.4-3.8 0-5.6z"/><path class="g" d="m209 153q-1.4 0.5-2.7 0.3l0.3-0.3v0.5 0.5c0 0.3 0 0.6-0.1 0.9 0 0.5-0.1 0.8-0.2 0.8-0.1 0-0.1-0.3-0.2-0.8 0-0.2 0-0.5-0.1-0.9-0.1-0.4 0-0.4 0-0.5v-0.5l0.3-0.3q1.3-0.2 2.7 0.3z"/><path class="g" d="m220.7 153c-1.9 0.4-3.9 0.4-5.8 0 1.9-0.4 3.8-0.4 5.8 0z"/><path class="g" d="m232.3 153c-1.9 0.4-3.9 0.4-5.8 0 1.9-0.4 3.9-0.4 5.8 0z"/><path class="g" d="m243.9 153c-1.9 0.4-3.9 0.4-5.8 0 2-0.4 3.9-0.4 5.8 0z"/><path class="g" d="m255.6 153c-1.9 0.4-3.9 0.4-5.8 0 1.9-0.4 3.9-0.4 5.8 0z"/><path class="g" d="m267.2 153c-1.9 0.4-3.9 0.4-5.8 0 1.9-0.4 3.9-0.4 5.8 0z"/><path class="g" d="m278.9 153c-1.9 0.4-3.9 0.4-5.8 0 1.9-0.4 3.8-0.4 5.8 0z"/><path class="g" d="m287.4 155.7q-0.4-1.4-0.3-2.7l0.3 0.3h-0.5-0.5c-0.3 0-0.6 0-0.9-0.1-0.5 0-0.8-0.1-0.8-0.2 0-0.1 0.3-0.1 0.8-0.2 0.3 0 0.5 0 0.9-0.1h0.5 0.5l0.3 0.3q0.2 1.4-0.3 2.7z"/><path class="g" d="m287.4 166.9c-0.4-1.9-0.4-3.8 0-5.6 0.4 1.8 0.4 3.7 0 5.6z"/><path class="g" d="m287.4 178.1c-0.4-1.9-0.4-3.8 0-5.6 0.3 0.9 0.4 1.9 0.3 2.8 0.1 1 0 1.9-0.3 2.8z"/><path class="g" d="m287.4 189.4c-0.4-1.9-0.4-3.8 0-5.6 0.4 1.8 0.4 3.7 0 5.6z"/><path class="g" d="m287.4 200.6c-0.4-1.9-0.4-3.8 0-5.6 0.3 0.9 0.4 1.9 0.3 2.8 0.1 0.9 0 1.9-0.3 2.8z"/><path class="g" d="m287.4 211.9c-0.4-1.9-0.4-3.8 0-5.6 0.4 1.8 0.4 3.7 0 5.6z"/><path class="g" d="m287.4 223.1c-0.4-1.9-0.4-3.8 0-5.6 0.4 1.8 0.4 3.7 0 5.6z"/><path class="h" d="m262.5 78.3q0 0 0-0.6c0-0.4 0-1 0-1.7q0-2.2 0-6.3c0-5.4-0.1-13.3-0.1-22.8l0.2 0.2-50.9 0.1c-0.1 0.1 0.5-0.5 0.2-0.3v16.2c0 5.2 0 10.3 0 15.1l-0.2-0.2 36.6 0.1 10.5 0.1h2.8 0.7c0.1 0 0.2 0 0.2 0.1l-0.9-0.1h-2.8l-10.5 0.1-36.8 0.1h-0.2v-0.2c0-4.8 0-9.9 0-15.1v-8c0-1.4 0-2.7 0-4.1v-4c-0.2 0.2 0.3-0.3 0.3-0.3l50.9 0.1h0.2v0.2c0 9.6-0.1 17.5-0.1 22.9 0 2.7 0 4.8 0 6.2 0 0.7 0 1.2 0 1.6 0 0.4-0.1 0.6-0.1 0.6z"/><path class="i" d="m258.8 75.1c0 0.1-9.8 0.3-21.8 0.3-12 0-21.8-0.1-21.8-0.3 0-0.2 9.8-0.2 21.8-0.2 12 0 21.8 0.1 21.8 0.2z"/><path class="i" d="m215.5 75.6c-0.3 0-0.5-0.2-0.5-0.5 0-0.3 0.2-0.5 0.5-0.5 0.3 0 0.5 0.2 0.5 0.5 0 0.3-0.2 0.5-0.5 0.5z"/><path class="e" d="m274 50.6h54.9v2.8h-54.9z"/><path class="g" d="m347.9 62.4c0 0.1-16.5 0.3-36.8 0.3-20.3 0-36.8-0.1-36.8-0.3 0-0.2 16.5-0.3 36.8-0.3 20.3 0 36.8 0.1 36.8 0.3z"/><path class="g" d="m347.9 70.1c0 0.2-16.5 0.3-36.8 0.3-20.3 0-36.8-0.1-36.8-0.3 0-0.2 16.5-0.3 36.8-0.3 20.3 0 36.8 0.1 36.8 0.3z"/><path class="j" d="m262.5 124.3q0 0 0-0.6c0-0.4 0-0.9 0-1.7q0-2.2 0-6.3c0-5.4-0.1-13.3-0.1-22.8l0.2 0.2-50.9 0.1c-0.1 0 0.5-0.5 0.2-0.3v16.2c0 5.2 0 10.3 0 15.1l-0.2-0.2 36.6 0.1 10.5 0.1h2.8 0.7l0.2 0.1c0.1 0 0 0-0.2 0h-0.7-2.8l-10.5 0.1-36.8 0.1h-0.2v-0.2c0-4.8 0-9.9 0-15.1v-8c0-1.4 0-2.7 0-4.1v-4.1c-0.2 0.2 0.3-0.3 0.3-0.3l50.9 0.1h0.2v0.2c0 9.6-0.1 17.5-0.1 22.9q0 4.1 0 6.3c0 0.7 0 1.2 0 1.6 0 0.1 0 0.3-0.1 0.5z"/><path class="i" d="m258.8 121.2c0 0.1-9.8 0.3-21.8 0.3-12 0-21.8-0.1-21.8-0.3 0-0.2 9.8-0.3 21.8-0.3 12 0 21.8 0.2 21.8 0.3z"/><path class="i" d="m215.5 121.7c-0.3 0-0.5-0.2-0.5-0.5 0-0.3 0.2-0.5 0.5-0.5 0.3 0 0.5 0.2 0.5 0.5 0 0.3-0.2 0.5-0.5 0.5z"/><path class="e" d="m274 96.6h54.9v2.8h-54.9z"/><path class="g" d="m347.9 108.5c0 0.2-16.5 0.3-36.8 0.3-20.3 0-36.8-0.1-36.8-0.3 0-0.2 16.5-0.3 36.8-0.3 20.3 0 36.8 0.1 36.8 0.3z"/><path class="g" d="m347.9 116.2c0 0.2-16.5 0.3-36.8 0.3-20.3 0-36.8-0.1-36.8-0.3 0-0.2 16.5-0.3 36.8-0.3 20.3 0 36.8 0.1 36.8 0.3z"/><path class="k" d="m184.8 135.4c0.8-0.3 1.7-0.3 2.5-0.3l-0.3 0.3v-0.5-0.5c0-0.3 0-0.6 0.1-0.8 0-0.4 0.1-0.7 0.2-0.7 0.1 0 0.1 0.3 0.2 0.7 0 0.2 0 0.5 0.1 0.8v1l-0.3 0.3c-0.9 0.1-1.7 0-2.5-0.3z"/><path class="k" d="m174.8 135.4c1.6-0.3 3.4-0.3 5 0-1.6 0.3-3.4 0.3-5 0z"/><path class="k" d="m164.8 135.4c1.6-0.3 3.4-0.3 5 0-1.6 0.3-3.3 0.3-5 0z"/><path class="k" d="m154.8 135.4c1.6-0.3 3.4-0.3 5 0-1.6 0.3-3.3 0.3-5 0z"/><path class="k" d="m144.9 135.4c0.8-0.3 1.7-0.3 2.5-0.3 0.8-0.1 1.7 0 2.5 0.3-0.8 0.3-1.7 0.3-2.5 0.3-0.9 0-1.7-0.1-2.5-0.3z"/><path class="k" d="m134.9 135.4c1.6-0.3 3.4-0.3 5 0-1.6 0.3-3.4 0.3-5 0z"/><path class="k" d="m124.9 135.4c1.6-0.3 3.4-0.3 5 0-1.6 0.3-3.3 0.3-5 0z"/><path class="k" d="m114.9 135.4c0.8-0.3 1.7-0.3 2.5-0.3 0.8-0.1 1.7 0 2.5 0.3-0.8 0.3-1.7 0.3-2.5 0.3-0.8 0-1.6-0.1-2.5-0.3z"/><path class="k" d="m105 135.4c1.6-0.3 3.4-0.3 5 0-1.6 0.3-3.3 0.3-5 0z"/><path class="k" d="m95 135.4c1.6-0.3 3.4-0.3 5 0-1.6 0.3-3.3 0.3-5 0z"/><path class="k" d="m85 135.4c1.6-0.3 3.4-0.3 5 0-1.6 0.3-3.3 0.3-5 0z"/><path class="k" d="m75.1 135.4c1.6-0.3 3.4-0.3 5 0-1.7 0.3-3.4 0.3-5 0z"/><path class="k" d="m65.1 135.4c1.6-0.3 3.4-0.3 5 0-1.7 0.3-3.4 0.3-5 0z"/><path class="k" d="m55.1 135.4c0.8-0.3 1.7-0.3 2.5-0.3 0.8-0.1 1.7 0 2.5 0.3-0.8 0.3-1.7 0.3-2.5 0.3-0.8 0-1.7-0.1-2.5-0.3z"/><path class="k" d="m45.1 135.4c0.8-0.3 1.7-0.3 2.5-0.3 0.8-0.1 1.7 0 2.5 0.3-0.8 0.3-1.7 0.3-2.5 0.3-0.8 0-1.7-0.1-2.5-0.3z"/><path class="k" d="m35.2 135.4c0.8-0.3 1.7-0.3 2.5-0.3 0.8-0.1 1.7 0 2.5 0.3-0.8 0.3-1.7 0.3-2.5 0.3-0.9 0-1.7-0.1-2.5-0.3z"/><path class="k" d="m27.7 132.9c0.3 0.8 0.3 1.7 0.3 2.5l-0.3-0.3h1c0.3 0 0.6 0 0.8 0.1 0.4 0 0.7 0.1 0.7 0.2 0 0.1-0.3 0.1-0.7 0.2l-0.8 0.1h-0.5-0.5l-0.3-0.3c0-0.9 0-1.7 0.3-2.5z"/><path class="k" d="m27.7 123.1c0.3 1.6 0.3 3.3 0 4.9-0.4-1.6-0.4-3.3 0-4.9z"/><path class="k" d="m27.7 113.2c0.3 1.6 0.3 3.3 0 4.9-0.4-1.6-0.4-3.2 0-4.9z"/><path class="k" d="m27.7 103.4c0.3 1.6 0.3 3.3 0 4.9-0.4-1.6-0.4-3.3 0-4.9z"/><path class="k" d="m27.7 93.6c0.3 1.6 0.3 3.3 0 4.9-0.4-1.6-0.4-3.3 0-4.9z"/><path class="k" d="m27.7 83.8c0.3 1.6 0.3 3.3 0 4.9-0.4-1.6-0.4-3.3 0-4.9z"/><path class="k" d="m27.7 74c0.3 1.6 0.3 3.3 0 4.9-0.4-1.6-0.4-3.3 0-4.9z"/><path class="k" d="m27.7 64.2c0.3 1.6 0.3 3.3 0 4.9-0.4-1.6-0.4-3.3 0-4.9z"/><path class="k" d="m27.7 54.3c0.3 1.6 0.3 3.3 0 4.9-0.4-1.6-0.4-3.2 0-4.9z"/><path class="k" d="m27.7 44.5c0.3 1.6 0.3 3.3 0 4.9-0.4-1.6-0.4-3.3 0-4.9z"/><path class="k" d="m30.2 37.1c-0.8 0.3-1.7 0.4-2.5 0.3 0.5-0.5 0.1-0.1 0.3-0.3v0.5c0 0.1 0 0.3 0 0.5 0 0.2 0 0.6-0.1 0.8 0 0.4-0.1 0.7-0.2 0.7-0.1 0-0.1-0.3-0.2-0.7 0-0.2 0-0.5-0.1-0.8v-1c0.1-0.1-0.3 0.2 0.3-0.3 0.8-0.1 1.7 0 2.5 0.3z"/><path class="k" d="m40.1 37.1c-0.8 0.3-1.7 0.4-2.5 0.3-0.8 0.1-1.7 0-2.5-0.3 0.8-0.3 1.7-0.3 2.5-0.3 0.9 0 1.7 0.1 2.5 0.3z"/><path class="k" d="m50.1 37.1c-0.8 0.3-1.7 0.4-2.5 0.3-0.8 0.1-1.7 0-2.5-0.3 0.8-0.3 1.7-0.3 2.5-0.3 0.9 0 1.7 0.1 2.5 0.3z"/><path class="k" d="m60.1 37.1c-0.8 0.3-1.7 0.4-2.5 0.3-0.8 0.1-1.7 0-2.5-0.3 0.8-0.3 1.7-0.3 2.5-0.3 0.8 0 1.7 0.1 2.5 0.3z"/><path class="k" d="m70.1 37.1c-1.6 0.4-3.4 0.4-5 0 1.6-0.3 3.3-0.3 5 0z"/><path class="k" d="m80 37.1c-1.6 0.4-3.4 0.4-5 0 1.7-0.3 3.4-0.3 5 0z"/><path class="k" d="m90 37.1c-1.6 0.4-3.4 0.4-5 0 1.7-0.3 3.4-0.3 5 0z"/><path class="k" d="m100 37.1c-1.6 0.4-3.4 0.4-5 0 1.7-0.3 3.4-0.3 5 0z"/><path class="k" d="m110 37.1c-1.6 0.4-3.4 0.4-5 0 1.7-0.3 3.4-0.3 5 0z"/><path class="k" d="m119.9 37.1c-0.8 0.3-1.7 0.4-2.5 0.3-0.8 0.1-1.7 0-2.5-0.3 0.8-0.3 1.7-0.3 2.5-0.3 0.9 0 1.7 0.1 2.5 0.3z"/><path class="k" d="m129.9 37.1c-1.6 0.4-3.4 0.4-5 0 1.7-0.3 3.4-0.3 5 0z"/><path class="k" d="m139.9 37.1c-1.6 0.4-3.4 0.4-5 0 1.6-0.3 3.3-0.3 5 0z"/><path class="k" d="m149.9 37.1c-0.8 0.3-1.7 0.4-2.5 0.3-0.8 0.1-1.7 0-2.5-0.3 0.8-0.3 1.7-0.3 2.5-0.3 0.8 0 1.7 0.1 2.5 0.3z"/><path class="k" d="m159.8 37.1c-1.6 0.4-3.4 0.4-5 0 1.7-0.3 3.4-0.3 5 0z"/><path class="k" d="m169.8 37.1c-1.6 0.4-3.4 0.4-5 0 1.7-0.3 3.4-0.3 5 0z"/><path class="k" d="m179.8 37.1c-1.6 0.4-3.4 0.4-5 0 1.6-0.3 3.3-0.3 5 0z"/><path class="k" d="m187.3 39.6c-0.3-0.8-0.3-1.7-0.3-2.5 0.5 0.5 0.1 0.1 0.3 0.3h-0.5-0.5-0.8c-0.4-0.1-0.7-0.1-0.7-0.2 0-0.1 0.3-0.1 0.7-0.2l0.8-0.1h1c0.1 0.1-0.3-0.3 0.3 0.3q0 1.2-0.3 2.4z"/><path class="k" d="m187.3 49.4c-0.3-1.6-0.3-3.3 0-4.9 0.3 1.6 0.3 3.3 0 4.9z"/><path class="k" d="m187.3 59.2c-0.3-1.6-0.3-3.3 0-4.9 0.3 1.7 0.3 3.3 0 4.9z"/><path class="k" d="m187.3 69.1c-0.3-1.6-0.3-3.3 0-4.9 0.3 1.6 0.3 3.3 0 4.9z"/><path class="k" d="m187.3 78.9c-0.3-1.6-0.3-3.3 0-4.9 0.3 1.6 0.3 3.3 0 4.9z"/><path class="k" d="m187.3 88.7c-0.3-1.6-0.3-3.3 0-4.9 0.3 1.6 0.3 3.3 0 4.9z"/><path class="k" d="m187.3 98.5c-0.3-1.6-0.3-3.3 0-4.9 0.3 1.6 0.3 3.3 0 4.9z"/><path class="k" d="m187.3 108.3c-0.3-1.6-0.3-3.3 0-4.9 0.3 1.6 0.3 3.3 0 4.9z"/><path class="k" d="m187.3 118.2c-0.3-0.8-0.3-1.6-0.3-2.5-0.1-0.8 0-1.7 0.3-2.4 0.3 0.8 0.3 1.6 0.3 2.4 0 0.8-0.1 1.7-0.3 2.5z"/><path class="k" d="m187.3 128c-0.3-1.6-0.3-3.3 0-4.9 0.3 1.6 0.3 3.3 0 4.9z"/><path class="l" d="m241.5 65.9q0.1-0.2 0.3-0.3c0.2-0.2 0.5-0.5 0.8-0.8 0.7-0.7 1.7-1.7 2.8-2.7v0.1c-1.1-1-2.1-2-2.8-2.7l-0.8-0.8q-0.1-0.2-0.3-0.3 0.1 0.2 0.3 0.3l0.9 0.8c0.7 0.7 1.8 1.6 2.9 2.6l0.1 0.1-0.1 0.1c-1.1 1.1-2.1 2-2.9 2.7l-0.9 0.8c0 0-0.1 0.1-0.3 0.1z"/><path class="l" d="m232.9 58.4q-0.1 0.2-0.3 0.3l-0.8 0.8c-0.7 0.7-1.7 1.7-2.8 2.7v-0.1c1.1 1 2.1 2 2.8 2.7l0.8 0.8q0.1 0.2 0.3 0.3-0.1-0.1-0.3-0.3c-0.2-0.2-0.5-0.5-0.9-0.8-0.7-0.7-1.8-1.6-2.9-2.6l-0.1-0.1 0.1-0.1c1.1-1.1 2.1-2 2.9-2.7l0.9-0.8c0.1 0 0.2-0.1 0.3-0.1z"/><path class="l" d="m235.1 67.7c0 0 0.9-2.6 2-5.7 1.2-3.1 2.2-5.6 2.2-5.6 0.1 0-0.9 2.6-2 5.7-1.1 3.1-2.1 5.7-2.2 5.6z"/><path class="l" d="m241.5 112.1q0.1-0.2 0.3-0.3c0.2-0.2 0.5-0.5 0.8-0.8 0.7-0.7 1.7-1.7 2.8-2.7v0.1c-1.1-1-2.1-2-2.8-2.7l-0.8-0.8q-0.1-0.1-0.3-0.3 0.1 0.2 0.3 0.3l0.9 0.8c0.7 0.7 1.8 1.6 2.9 2.6l0.1 0.1-0.1 0.1c-1.1 1.1-2.1 2-2.9 2.7l-0.9 0.8c0-0.1-0.1 0-0.3 0.1z"/><path class="l" d="m232.9 104.5q-0.1 0.1-0.3 0.3l-0.8 0.8c-0.7 0.7-1.7 1.7-2.8 2.7v-0.1c1.1 1 2.1 2 2.8 2.7l0.8 0.8q0.1 0.2 0.3 0.3-0.1-0.1-0.3-0.3c-0.2-0.2-0.5-0.5-0.9-0.8-0.7-0.7-1.8-1.6-2.9-2.6l-0.1-0.1 0.1-0.1c1.1-1.1 2.1-2 2.9-2.7l0.9-0.8c0.1 0.1 0.2 0 0.3-0.1z"/><path class="m" d="m235.1 113.9c0 0 0.9-2.6 2-5.7 1.2-3.1 2.2-5.6 2.2-5.6 0.1 0-0.9 2.6-2 5.7-1.2 3.1-2.1 5.6-2.2 5.6z"/><path class="e" d="m175.8 134.6l-155.1 8.5c-1.2 0.1-2.2-0.8-2.2-2l-5.1-93.9c-0.1-1.2 0.8-2.2 2-2.2l155.1-8.5c1.2-0.1 2.2 0.8 2.2 2l5.1 93.9c0 1.1-0.9 2.1-2 2.2z"/><path class="b" d="m165.8 125.3c0 0.1-30.5 1.9-68.2 4-37.7 2.1-68.2 3.6-68.2 3.5 0-0.1 30.5-1.9 68.2-4 37.7-2.1 68.2-3.6 68.2-3.5z"/><circle class="b" cx="30.2" cy="132.8" r="1.7"/><g style="opacity:.3"><path  d="m170.2 36.5l3.9 16 1 9.4 1.8 55.5-39.1 8.7v-37.1l21.1-0.9c1.8 0 3.7-0.2 5-1.3 1.7-1.4 1.8-3.8 1.9-5.9 0.2-7.6 0.3-15.5-3.4-22.1-1.2-2.1-2.8-4.1-3.6-6.4-1.7-5.1 0.8-10.5 3.3-15.3z"/></g><path class="n" d="m145.5 337l1.3 31.4-16.9 0.4-1.4-31.3z"/><path class="g" d="m137.1 352.1c-0.5-8.4-0.7-15.3-0.6-15.3 0.1 0 0.6 6.9 1.1 15.3 0.5 8.4 0.7 15.3 0.6 15.3-0.2 0.1-0.6-6.9-1.1-15.3z"/><path class="k" d="m129.8 366.7l16.9-0.5 0.1 2.2-16.9 0.4z"/><path class="g" d="m144.2 356.6c-1.9-1.5-4.2-2.2-6.6-2.2-2.4 0.1-4.6 1.2-6.2 2.9-0.7 0.7-1.2 1.5-1.7 2.4 0-0.3 0.1-0.6 0.2-0.8 0.2-0.7 0.6-1.3 1.1-1.9 1.7-1.9 4-3.1 6.5-3.2 1.4-0.1 2.7 0.2 4 0.7 1.7 0.7 3.2 1.8 4.4 3.2 0.4 0.4 0.5 0.7 0.5 0.7-0.1 0.1-0.8-0.8-2.2-1.8z"/><g style="opacity:.3"><path  d="m145.9 346l0.1 3.4-16.9 0.3-0.2-2.6z"/></g><path class="n" d="m106.6 338.1l0.1 30.6-38.1 0.3c0.3-3.6 19.9-11.1 19.9-11.1l-0.9-19.6z"/><path class="k" d="m100 356.2c0.8 0.2 1.2 1 1.1 1.8-0.2 0.8-1 1.3-1.8 1.1-0.8-0.2-1.3-1.1-1.1-1.9 0.3-0.8 1.2-1.2 1.9-0.9"/><path class="k" d="m68.3 369c-0.2-1.2 1.5-2 1.5-2l36.9-1.4v3.1z"/><path class="g" d="m90.4 358.3c1.1 0.7 1.4 1.8 1.2 1.9-0.2 0.1-0.7-0.7-1.6-1.3-0.9-0.6-1.9-0.7-1.9-0.9 0-0.1 1.2-0.4 2.3 0.3z"/><path class="g" d="m86 360.6c0.8 0.9 0.7 2 0.5 2-0.2 0-0.4-0.8-1-1.6-0.6-0.8-1.4-1.1-1.4-1.3 0-0.2 1.1 0 1.9 0.9z"/><path class="g" d="m81.2 362.9c-0.4-0.8-0.9-1.4-0.9-1.5 0-0.1 0.9 0.3 1.4 1.3 0.5 1 0.3 1.9 0.1 1.9-0.1-0.1-0.2-0.9-0.6-1.7z"/><path class="g" d="m90.5 352.8c1.2 0.1 2 0.7 1.9 0.9-0.1 0.2-0.9-0.1-2-0.2-1.1-0.1-1.9 0.2-2 0-0.1-0.1 0.9-0.8 2.1-0.7z"/><path class="g" d="m89.6 348.9c0.7-0.2 1.3-0.4 1.9-0.7 0.3-0.2 0.7-0.4 1-0.6 0.1-0.1 0.3-0.2 0.4-0.3 0-0.1 0.1 0 0-0.2-0.1-0.2-0.5-0.2-0.9-0.1-0.4 0-0.7 0.2-1.1 0.3-0.6 0.3-1.2 0.6-1.7 1-0.9 0.7-1.3 1.3-1.4 1.2-0.1-0.1 0.2-0.8 1.1-1.6q0.9-0.7 1.8-1.2c0.4-0.2 0.8-0.3 1.2-0.4 0.2-0.1 0.5-0.1 0.7-0.1 0.3 0 0.6 0.1 0.8 0.4 0.2 0.3 0.2 0.7-0.1 1-0.2 0.2-0.4 0.4-0.6 0.5-0.4 0.2-0.7 0.4-1.1 0.6-0.6 0.3-1.3 0.5-2 0.6-0.6 0.2-1.3 0.2-1.9 0 0.6-0.2 1.2-0.4 1.9-0.4z"/><path class="g" d="m87.9 347.5c0-0.6-0.2-1.3-0.4-1.9-0.1-0.3-0.3-0.7-0.5-1-0.2-0.3-0.5-0.6-0.7-0.6-0.2 0-0.3 0.3-0.4 0.7 0 0.4 0 0.7 0 1.1 0.1 0.6 0.3 1.3 0.7 1.8 0.6 0.9 1.3 1.3 1.2 1.4-0.1 0.1-0.8-0.1-1.6-1.1-0.4-0.6-0.7-1.3-0.8-2-0.1-0.4-0.1-0.9 0-1.3 0-0.2 0.1-0.5 0.2-0.7 0.1-0.3 0.5-0.5 0.8-0.5 0.5 0.1 1 0.5 1.2 1 0.2 0.4 0.4 0.8 0.5 1.2q0.3 1.1 0.3 2.1c0 0.7-0.1 1.3-0.5 1.9-0.1-0.1 0.1-0.8 0-2.1z"/><g style="opacity:.3"><path  d="m106.7 349.9v4.3h-18.4v-2.4z"/></g><path class="o" d="m165.7 45.9c0 0 0.3 3.1 2.6 3.1 2.7 0 1.7-5.7 1.7-5.7l-1.4-5.4c-0.9 0-1.8-0.1-2.6-0.3-3-0.8-1.7-2.6-1.7-2.6l6-0.1c0.9 0.1 1.7 0.6 2 1.4l1 2.5 0.7 0.1c0.7 0.1 1.2 0.6 1.5 1.2l0.4 1.1 1.2 0.2c0.9 0.1 1.8 0.7 2.2 1.6l1.6 8.8 3.8 14.5-12.4-0.2-0.3-4.6-2.2-1.2c-1.5-0.9-2.7-2.1-3.5-3.5l-4.4-7.8q-0.6-1.2-0.3-2.4c0.6-2.2 1.7-6.5 2.1-6.5 3.1-0.3 2 5.8 2 5.8z"/><path class="p" d="m176 45.6c-0.1-0.4-0.1-0.8-0.2-1.1-0.3-0.9-0.9-1.6-1.7-2.1q-0.6-1.3-0.9-2.7c-0.1-0.4-0.2-0.8-0.1-1.2 0 0 0.1 0.4 0.3 1.1 0.2 0.9 0.6 1.8 0.9 2.6l0.6 0.5c0.2 0.2 0.4 0.4 0.5 0.6 0.3 0.4 0.4 0.7 0.6 1.2 0.1 0.3 0.1 0.6 0.1 0.9-0.1-0.1-0.1 0.1-0.1 0.2z"/><path class="p" d="m177.9 44.5c0-0.2-0.1-0.4-0.2-0.6-0.2-0.4-0.7-0.7-1.1-0.8h-0.1v-0.1l-0.1-0.2c-0.3-0.7-0.5-1.5-0.7-2.2 0.4 0.7 0.7 1.4 0.9 2.2l0.1 0.2-0.1-0.1c0.6 0.1 1 0.4 1.3 0.9 0.1 0.5 0 0.7 0 0.7z"/><path class="p" d="m168.4 38c-0.1 0-0.3-0.3-0.2-0.7 0.1-0.4 0.3-0.7 0.3-0.6 0 0.1-0.1 0.3-0.1 0.7 0 0.4 0.1 0.5 0 0.6z"/><path class="d" d="m103.7 96.1c0.2-0.3 0.4-0.5 0.6-0.7 0.5-0.5 1.1-1.1 1.8-1.9 1.5-1.6 3.7-3.8 6-6.1l0.1-0.1v0.3c-2.5-2.2-4.8-4.2-6.4-5.7l-1.9-1.8c-0.2-0.2-0.5-0.4-0.7-0.7 0.3 0.2 0.5 0.3 0.8 0.6l2 1.7c1.7 1.4 4 3.4 6.5 5.6l0.2 0.2-0.2 0.2-0.1 0.1c-2.4 2.4-4.5 4.5-6.1 6l-1.9 1.8c-0.2 0.1-0.4 0.3-0.7 0.5z"/><path class="d" d="m84.3 80c-0.2 0.3-0.4 0.5-0.6 0.7l-1.8 1.9c-1.5 1.6-3.6 3.8-6 6.1l-0.1 0.1v-0.3c2.5 2.2 4.8 4.2 6.4 5.7l1.9 1.8c0.2 0.2 0.5 0.4 0.7 0.7-0.3-0.2-0.5-0.3-0.8-0.6-0.5-0.4-1.2-1-2-1.7-1.7-1.4-4-3.4-6.5-5.6l-0.2-0.2 0.2-0.2 0.1-0.1c2.4-2.4 4.5-4.5 6.1-6l1.9-1.8c0.2-0.1 0.5-0.3 0.7-0.5z"/><path class="d" d="m89.8 100.4c-0.1 0 1.7-5.7 4.1-12.5 2.4-6.9 4.4-12.4 4.5-12.4 0.1 0-1.7 5.7-4.1 12.5-2.4 6.9-4.4 12.4-4.5 12.4z"/><path class="o" d="m96.7 48.2l1.2-1c8.3-6.4 19.4-7.8 29.1-3.7 0 0-0.4 14.1-0.5 22.5-0.1 8.4-1.6 8.7-1.6 8.7l2.5 19.2-22.5 0.3z"/><path class="o" d="m99.5 66.7c0 0.1-5.8 1.5-5.9-4.2-0.1-5.7 5.5-4.1 5.6-4 0 0 0.3 8.1 0.3 8.2z"/><path class="o" d="m126 57.3c0.1-0.1 5.2-1.4 5 4.3-0.2 5.7-5.9 4.3-5.9 4.2 0-0.1 0.9-8.5 0.9-8.5z"/><path class="q" d="m131.4 43.7c0.7 0.7 0.9 1.7 0.5 2.6-0.4 0.9-1.1 1.6-1.9 2.1-0.7 0.4-1.4 0.8-2.2 1h-0.1-0.1-0.2c-3.5 0.7-7.1 0.4-10.4-1.1-8.8-4.5-10.9-2.2-12-1.3-1.1 0.9 0.5 7.2-3.7 8.8 0 0 2.7 15.6-0.7 15.5-1.9 0-4.3-14.5-4.4-19.1q0-0.1 0-0.3c-0.5-1.2-0.8-2.4-1-3.7-0.3-1.9 0.1-3.9 1.2-5.5 1.1-1.6 3.1-2.4 5-1.9 2-5.5 8.1-8.3 13.6-6.3 1.2 0.4 2.4 1.1 3.6 1.6 1.2 0.5 2.6 0.7 3.9 0.4 1.3-0.4 2.4-1.4 3.8-1.3q0.1 0 0.3 0c1.3 0.3 2.2 1.6 1.9 3 0.7-0.7 1.9-0.8 2.8-0.2 0.8 0.7 1.2 1.7 1.1 2.8-0.1 1.1-0.5 2.1-1 2.9z"/><path class="q" d="m98.9 46.8l10.6-6.3 18.6 3.4c0 0-0.5 6.2-0.5 12.7 0 3.6-0.4 9.9-0.8 13.5-0.4 3.6-2.3 6.3-5 8.7-3.9 3.5-10.1 3.5-14.6 1-4.5-2.5-7.1-6.4-8.3-11.4-0.8-3.2-0.6-5.7-1.5-10.5z"/><path class="g" d="m116.6 82.6c-1 0.4-2.2 0.5-3.3 0.3-1.1 0-2.2-0.4-3.1-1 0.1-0.1 1.4 0.3 3.2 0.5 1.8 0.2 3.2 0.1 3.2 0.2z"/><path class="r" d="m121.4 39.7c-0.3 0.1-0.6 0.2-0.9 0.2q-1.2 0-2.4-0.6c-1.1-0.6-2.1-1.2-3-2-1.1-0.9-2.5-1.6-3.9-1.8-1.5-0.2-2.9 0.1-4.2 0.7-1.1 0.6-1.9 1.4-2.6 2.4-0.6 0.9-1 2-1.1 3.1 0-0.3 0-0.6 0.1-0.9 0.2-0.8 0.5-1.6 0.9-2.3 0.6-1.1 1.5-1.9 2.6-2.5 1.3-0.7 2.9-1 4.4-0.8 1.5 0.2 2.9 0.9 4 1.9 0.9 0.8 1.9 1.4 3 2 0.7 0.4 1.5 0.6 2.3 0.6 0.5 0.1 0.8-0.1 0.8 0z"/><path class="r" d="m103.3 41.7c-0.3-0.2-0.6-0.3-1-0.4-0.1 0-0.3-0.1-0.4-0.1-2.3-0.5-4.6 1.1-5 3.4-0.1 0.4-0.1 0.7-0.1 1.1 0 0.1 0.1 0.3 0.1 0.4 0-0.5 0-0.9 0.1-1.4 0.2-1.1 0.9-2.1 1.9-2.7 1-0.6 2.2-0.8 3.3-0.5 0.4 0.1 0.9 0.3 1.3 0.5 0-0.1-0.1-0.2-0.2-0.3z"/><path class="r" d="m103 62.3c-1.2-1.8-2.1-3.9-2.6-6 1.2 1.9 2.1 3.9 2.6 6z"/><path class="r" d="m107.9 65.6c-1.1-0.6-2-1.5-2.6-2.6-0.8-1-1.2-2.2-1.4-3.5 0.1 0 0.7 1.5 1.8 3.2 1.1 1.7 2.3 2.8 2.2 2.9z"/><path class="r" d="m112.7 66.7c-0.8-0.3-1.6-0.7-2.2-1.4-1.1-1-1.8-1.9-1.7-2 0.1-0.1 0.9 0.7 2 1.6 1.1 0.9 2 1.6 1.9 1.8z"/><path class="r" d="m121.2 58.9c0.1 1 0 2-0.5 2.8-0.3 0.9-0.9 1.8-1.6 2.4 0.3-0.9 0.7-1.7 1.2-2.6 0.2-0.8 0.5-1.7 0.9-2.6z"/><path class="r" d="m124 54.4c0.2 1.2 0.1 2.4-0.3 3.5-0.3 1.2-0.8 2.2-1.7 3.1-0.1-0.1 0.7-1.4 1.2-3.2 0.5-1.8 0.7-3.4 0.8-3.4z"/><path class="r" d="m126.3 42.9c-0.2 0.2-0.5 0.4-0.7 0.6-0.7 0.4-1.6 0.7-2.4 0.8-1.3 0.1-2.6-0.1-3.8-0.6q-2.1-0.9-4.2-2.1-2-1.2-4.2-1.8c-1.2-0.3-2.5-0.3-3.7 0-0.8 0.2-1.6 0.7-2.2 1.2-0.4 0.4-0.6 0.7-0.6 0.7 0.1-0.3 0.3-0.5 0.5-0.8 0.6-0.6 1.4-1.1 2.2-1.3 1.2-0.4 2.5-0.4 3.8-0.1 1.5 0.4 2.9 1 4.3 1.8 1.3 0.8 2.7 1.5 4.1 2.1 1.2 0.5 2.4 0.7 3.7 0.6 1.1 0 2.2-0.4 3.2-1.1z"/><path class="r" d="m126.6 46.1c-1 0.4-2 0.6-3.1 0.7-1.1 0.1-2.1 0.1-3.2-0.1-0.8-0.2-1.3-0.3-1.3-0.3 0 0 0.1 0 0.3 0.1 0.3 0.1 0.7 0.2 1 0.3 2.1 0.5 4.4 0.3 6.4-0.6 0.3-0.1 0.6-0.2 0.9-0.4 0.1-0.1 0.2-0.1 0.3-0.2 0 0-0.5 0.2-1.3 0.5z"/><path class="g" d="m117.5 217.9l-13.1 60 5.4 73.8h-23l-10.8-77.7 12.4-88.7 60.1-4.3-0.6 169.1h-21l-3.9-79.4z"/><path class="r" d="m117.5 217.9c-1.2 1.5-2.6 2.8-4.1 4-1.4 1.3-2.8 2.6-4.4 3.6 1.2-1.5 2.6-2.8 4.1-4 1.4-1.3 2.9-2.5 4.4-3.6z"/><path class="r" d="m117.5 216.9c-0.1-2.3-0.1-4.5 0.1-6.8 0-2.3 0.1-4.5 0.4-6.8 0.3 2.3 0.3 4.5 0.1 6.8 0 2.3-0.2 4.6-0.6 6.8z"/><path class="r" d="m124.4 197.2q0.2 0 0.3 0l1-0.1 4-0.2 14.2-0.6h0.2v0.2c0 4.4 0 9.5 0 14.8v0.5l-0.2 0.1-9.2 3.7h-0.1-0.1l-8.2-2.8h-0.1v-0.1c-0.6-4.6-1.1-8.5-1.4-11.2-0.2-1.3-0.3-2.3-0.4-3.1-0.1-0.8 0-1.2 0-1.2 0 0.2 0 0.3 0.1 0.4 0 0.2 0.1 0.5 0.1 0.8 0.1 0.8 0.3 1.8 0.5 3.1 0.4 2.7 1 6.5 1.7 11l-0.1-0.2 8.2 2.8h-0.2l9.2-3.7-0.2 0.2v-0.3c0-5.3 0-10.3 0-14.8l0.2 0.2-14.1 0.4-4 0.1z"/><path class="r" d="m94.1 197.4q0.2 0 0.3 0h0.9l3.6-0.1 13-0.3h0.2v0.2c-0.1 4.4-0.3 9.4-0.5 14.8v0.1l-0.1 0.1-1.5 1-7.6 5-0.1 0.1-0.1-0.1-8.6-5.4-0.1-0.1v-0.1c0.2-4.6 0.3-8.4 0.4-11.2 0.1-1.3 0.1-2.3 0.1-3.1 0.1-0.2 0.1-0.5 0.1-0.9q0 0.1 0 0.3v0.8c0 0.8 0 1.8 0 3.1 0 2.7-0.1 6.5-0.2 11l-0.1-0.2 8.6 5.1h-0.3l7.6-5 1.5-1-0.1 0.2c0.2-5.4 0.4-10.4 0.5-14.8l0.2 0.2-12.8 0.1h-4.6z"/><path class="r" d="m142 221.3c-0.9 0.1-1.9 0-2.8-0.1-1.8-0.1-4.2-0.4-6.8-0.7-2.6-0.3-5.1-0.7-6.8-1-0.9-0.1-1.9-0.3-2.8-0.6 0.9 0 1.9 0.1 2.8 0.3l6.8 0.9 6.8 0.9c1-0.1 1.9 0.1 2.8 0.3z"/><path class="r" d="m141.5 280.1c0 0-0.1 0.3-0.5 0.7-0.6 0.5-1.4 0.7-2.1 0.7-1.1 0-2.3-0.5-3.1-1.2-1-0.9-2-1.8-2.9-2.9q-2.4-2.8-4.2-6c-0.5-0.9-1-1.8-1.3-2.7 0.6 0.8 1.1 1.7 1.6 2.5 1.3 2 2.8 4 4.3 5.8 0.8 1 1.8 2 2.8 2.9 0.8 0.7 1.8 1.1 2.8 1.2 0.7 0 1.4-0.1 2-0.5 0.4-0.2 0.6-0.5 0.6-0.5z"/><path class="r" d="m100.1 282c0 0 0 0.3-0.3 0.7-0.4 0.6-0.9 1-1.4 1.4-0.9 0.5-1.9 0.8-2.9 0.8-1.2 0-2.4-0.4-3.5-1.1-1.8-1.3-3.3-3-4.2-5-0.4-0.8-0.8-1.6-1-2.5 0.5 0.7 1 1.5 1.4 2.3 1 1.9 2.4 3.5 4.1 4.7 1 0.6 2.1 1 3.2 1.1 0.9 0 1.9-0.2 2.7-0.6 0.8-0.5 1.4-1.1 1.9-1.8z"/><path class="r" d="m101.4 274c-0.5 0.4-1.1 0.8-1.7 1-1.5 0.6-3.1 0.9-4.7 1q-2.4 0.1-4.8-0.6c-0.6-0.2-1.3-0.5-1.8-0.9 2.1 0.7 4.3 1 6.5 1 2.3-0.1 4.5-0.6 6.5-1.5z"/><path class="s" d="m170.1 71.4l0.6-9.2 14-0.5 6.8 36.2c0.4 3.4-0.7 6.9-3.1 9.4-2.2 2.3-5.2 3.7-8.4 3.7l-36.9 3.8-9.9 7.3-4.1-33.7c1-1.2 2.3-2.1 3.8-2.6 2-0.4 6.2 2 6.2 2h30.6z"/><path class="s" d="m88.1 148.5c0 0-10.2 8.3-12.8 9.1-5.7 1.9-12.2 0.8-16.1-3.3-3.2-3.4-3.8-8.5-1.5-12.6 6.4-11.1 18.6-32.5 20.4-36.8 1.5-3.6 4.1-6.6 7.4-8.6z"/><path class="s" d="m90.8 172.7l-7-60.3 1.7-16.1 17.9-7.6 23.1-1.5 22 2.4-5.2 61.9 5.7 34.9-61.7 2.7z"/><path class="g" d="m90.8 172.4c-0.1 0-1.8-13.4-3.8-30-2-16.6-3.4-30-3.2-30.1 0.2-0.1 1.8 13.4 3.8 30 2 16.6 3.4 30.1 3.2 30.1z"/><path class="g" d="m148 103.1q0 0.3 0 0.6c0 0.4-0.1 0.9-0.1 1.6q-0.1 2.1-0.6 5.7c-0.5 4.9-1.1 11.5-1.9 18.8-0.8 7.3-1.3 14-1.6 18.8-0.2 2.4-0.3 4.3-0.4 5.7 0 0.6-0.1 1.1-0.1 1.5 0 0.2 0 0.4-0.1 0.5 0-0.2 0-0.4 0-0.5 0-0.4 0-0.9 0-1.6 0-1.4 0.1-3.3 0.2-5.7 0.3-4.8 0.8-11.5 1.5-18.8 0.7-7.3 1.4-14 2-18.8 0.3-2.4 0.6-4.3 0.8-5.7 0.1-0.6 0.2-1.1 0.2-1.5 0-0.2 0-0.4 0.1-0.6z"/><path class="g" d="m137.4 163.2c-0.3 0.4-0.6 0.8-1 1.2-0.4 0.5-0.8 0.9-1.2 1.3-0.5 0.5-1.1 1.1-1.8 1.6-0.7 0.6-1.5 1.2-2.3 1.8-0.9 0.6-1.9 1.2-2.8 1.8-4.5 2.5-9.5 4-14.6 4.4-1.2 0-2.3 0.1-3.3 0.1-1 0-1.9-0.1-2.9-0.2-0.8-0.1-1.6-0.2-2.4-0.4-0.6-0.1-1.2-0.2-1.8-0.4-0.5-0.1-1-0.3-1.5-0.5 0-0.1 2.1 0.5 5.6 0.9 1 0.1 1.9 0.1 2.9 0.1 1 0 2.1-0.1 3.3-0.1 5-0.4 9.9-1.9 14.4-4.3 1-0.6 2-1.1 2.8-1.7 0.8-0.6 1.6-1.1 2.3-1.7 2.8-2.3 4.2-4 4.3-3.9z"/><g style="opacity:.3"><path  d="m104.8 174.5c-3-0.9-3.2-3.7-2-4.9 1.2-1.2 3-1.4 4.7-1.1 1.6 0.4 3.3 0.6 5 0.7 2.7-0.2 5-2.1 6.9-4.1 1.9-2 3.7-4.2 6.2-5.3 2.5-1.1 6-0.7 7.3 1.7 0.8 1.6 0.7 3.5-0.3 5-0.9 1.5-2.2 2.7-3.7 3.6-7 4.7-15.7 6.3-24.1 4.4z"/></g><g style="opacity:.2"><path  d="m85 122.3c0 0 0.5 9.3 1.3 13.4 0.3 1.8 1.1 6.7 1.1 6.7-1.3 1-2.6 2-4.1 2.9-3.4 1.8-7.9 4.3-7.9 4.3 0 0 5.1-6.5 5.2-7.2 0 0 5.3-7.1 5.8-7.9"/></g><path class="g" d="m141.3 89c1.6 0.6 3.1 1.7 4 3.2 1.1 1.4 1.7 3.1 1.8 4.8-1-3.2-3-6-5.8-8z"/><path class="g" d="m86.4 134.5q-0.6 1.3-1.5 2.4c-1 1.5-2.4 3.5-3.9 5.6-3.1 4.4-5.8 7.9-6 7.6l1.6-2.3 4-5.6c1.6-2.2 3-4.2 4.1-5.6 0.4-0.6 1-1.4 1.7-2.1z"/><path class="d" d="m213.8 347.4c0.1-0.2 0.2-0.3 0.4-0.5q0.5-0.5 1.2-1.2c1-1 2.4-2.3 3.9-3.8v0.2c-1.6-1.4-3-2.8-4-3.7l-1.2-1.1c-0.2-0.1-0.3-0.3-0.4-0.4 0.2 0.1 0.3 0.2 0.5 0.4l1.2 1.1c1 0.9 2.5 2.2 4 3.7l0.1 0.1-0.1 0.1c-1.6 1.5-3 2.8-4 3.7l-1.2 1.1c0 0-0.2 0.1-0.4 0.3z"/><path class="d" d="m201.8 336.8c-0.1 0.2-0.2 0.3-0.4 0.5l-1.2 1.2c-1 1-2.4 2.3-3.9 3.8v-0.3c1.6 1.4 3 2.8 4 3.7l1.2 1.1c0.2 0.1 0.3 0.3 0.4 0.4-0.2-0.1-0.3-0.2-0.5-0.4-0.3-0.3-0.8-0.7-1.2-1.1-1-0.9-2.5-2.2-4-3.7l-0.1-0.1 0.1-0.1c1.6-1.5 3-2.8 4-3.7l1.2-1.1c0 0 0.2-0.1 0.4-0.2z"/><path class="d" d="m204.9 349.8c-0.1 0 1.2-3.6 2.8-7.9 1.6-4.3 3-7.8 3.1-7.8 0.1 0-1.2 3.6-2.8 7.9-1.7 4.4-3.1 7.9-3.1 7.8z"/></svg>