<svg version="1.2" xmlns="http://www.w3.org/2000/svg" viewBox="0 0 500 500" width="500" height="500"><style>.a{fill:#003682}.b{fill:#f63}.c{fill:#ff6a34}.d{fill:#ff6e35}.e{fill:#fe7335}.f{fill:#fe7736}.g{fill:#fe7b37}.h{fill:#fe7f38}.i{fill:#fd8338}.j{fill:#fd8739}.k{fill:#fd8c3a}.l{fill:#fd903b}.m{fill:#fc943b}.n{fill:#fc983c}.o{fill:#fc9c3d}.p{fill:#fca03e}.q{fill:#fba53e}.r{fill:#fba93f}.s{fill:#fbad40}.t{fill:#0055dc}.u{fill:#c5ebf5}.v{fill:#fff}.w{fill:#f6821f}</style><path class="a" d="m491 296.7c0.3 16.6-12.9 30.3-29.5 30.5h-114.4c-20.4 0-36.8-16.6-36.8-36.9 0-20.4 16.6-36.9 36.9-36.9q3.1 0 6.2 0.6c6.5-21.4 26-36.3 48.4-36.9 28.7-0.8 52.8 21.9 53.6 50.7 2-0.4 4.1-0.6 6.1-0.6 16.2 0.3 29.2 13.3 29.5 29.5z"/><path class="b" d="m324.3 307.7c8.5-20.4 32.4-55.1 68-55.1 19.9 0 36.8 6.2 48.7 17.7 13.4 13 20.2 32.1 20.2 56.7h0.8c0-47.1-26.1-75.2-69.8-75.2-36 0-60.2 35-68.8 55.6-5.6 13.4-16.4 21.3-26.3 19.4-12.5-2.5-19.9-19.1-19.9-44.4 0-46.1-11.8-81.6-35-105.6-20.2-20.8-48.2-31.8-81.2-31.8-23.1 0-45.4 8.7-62.8 24.5-16.5 15-25.9 34-25.9 52.3h0.8c0-18 9.3-36.8 25.7-51.7 17.2-15.6 39.3-24.2 62.2-24.2 32.8 0 60.6 10.9 80.6 31.5 23 23.8 34.7 59.2 34.7 105.1 0 25.7 7.7 42.7 20.7 45.3 1.1 0.2 2.2 0.3 3.3 0.3 9.4 0 18.7-7.7 24-20.4z"/><path class="c" d="m299.4 329.4c-1.3 0-2.4-0.1-3.7-0.4-12.4-2.7-20-18.9-20.5-43.2-0.8-42.3-11.6-75.9-32.2-100-18.7-21.7-45.8-33.8-78.6-34.8-23.4-0.7-46.6 8.2-63.6 24.5-14 13.4-22.3 30.3-22.5 46.5h-0.8c0.3-16.3 8.6-33.6 22.8-47.1 17.2-16.4 40.5-25.4 64.2-24.7 33 1.1 60.4 13.3 79.2 35.2 20.7 24.2 31.6 58.1 32.4 100.4 0.4 24 7.8 39.9 19.8 42.5 9.8 2.1 20.3-5.1 26.5-17.9 1.9-4.1 9.5-18.9 22.3-31.8 13.7-14.1 28.9-21.4 45.1-21.8 2.3-0.1 4.2-0.1 6.2 0 17.8 0.6 32.9 6.8 43.8 17.7 12.1 12.3 18.4 30.1 18.7 52.7h-0.8c-0.3-22.4-6.5-40-18.6-52.2-10.6-10.8-25.5-16.9-43.2-17.5q-2.8-0.1-6.1 0c-15.9 0.5-30.9 7.7-44.5 21.5-12.7 12.9-20.2 27.5-22.1 31.7-5.6 11.6-14.9 18.7-23.8 18.7z"/><path class="d" d="m298.4 330.6c-1.3 0-2.6-0.2-3.8-0.4-5.8-1.4-19.2-8-20.5-41.3-1.4-40-12-72.7-31.7-97.2-17.3-21.4-43-33.7-74.6-35.8-22.5-1.5-45 6.4-61.8 21.6-13.8 12.6-22 28.8-22.5 44.4h-0.8c0.4-15.9 8.8-32.3 22.8-45 17-15.4 39.7-23.4 62.4-21.9 31.8 2.2 57.8 14.6 75.1 36.2 19.8 24.6 30.6 57.4 32 97.7 1.2 32.6 14.2 39.1 19.7 40.5 9.5 2.2 20.1-4.4 26.5-16.4 6.2-11.6 29.4-49.6 66-51.7 2.4-0.1 4.3-0.1 6.1-0.1 17.1 0 31.7 5.4 42.4 15.5 12.1 11.5 18.6 28.6 19.2 50.4h-0.8c-0.6-21.6-7-38.4-19-49.9-10.5-10-24.9-15.3-41.8-15.3-1.8 0-3.6 0.1-6 0.1-36.2 2.1-59.1 39.8-65.3 51.4-5.9 10.7-14.9 17.2-23.6 17.2z"/><path class="e" d="m297.6 331.8c-1.4 0-2.9-0.1-4.4-0.5-11.6-2.9-19-17.2-20.2-39.2-2.1-37.8-12.7-69.6-31.4-94.4-16-21.3-39.7-33.7-70.5-36.9-21.6-2.2-43.5 4.6-59.9 18.7-13.6 11.8-21.9 27.2-22.6 42.4h-0.8c0.7-15.4 9.1-31.1 22.9-43 16.6-14.3 38.7-21.2 60.5-18.9 30.9 3.2 54.8 15.7 71 37.1 18.9 25.1 29.5 57 31.6 94.9 1.2 21.6 8.3 35.7 19.6 38.4 9.2 2.3 19.7-3.4 26.6-14.8 24.6-40.5 50.9-48.6 64.5-49.8 1.8-0.2 3.8-0.4 5.6-0.5 16.8-0.7 31.4 4.1 42.1 14.1 11.7 10.8 18.1 26.8 18.9 47.5h-0.8c-0.8-20.5-7-36.4-18.6-47-10.6-9.8-24.9-14.5-41.5-13.8-1.9 0.1-3.8 0.3-5.6 0.4-13.4 1.2-39.5 9.2-63.9 49.4-6 10.2-14.7 15.9-23.1 15.9z"/><path class="f" d="m296.8 333.1c-1.6 0-3.1-0.2-4.7-0.6-6.6-1.8-18-9-20.2-37.2-2.7-35.5-13.2-66.3-31.1-91.7-14.6-20.9-36.9-33.6-66.2-37.8-20.8-3-42 2.7-58.2 15.9-13.4 10.8-21.6 25.6-22.5 40.3l-0.8-0.1c1-15 9.2-29.8 22.8-40.8 16.3-13.3 37.7-19.1 58.8-16.1 29.6 4.2 52 17.1 66.8 38.2 17.9 25.5 28.5 56.4 31.2 92.1 1.6 20.2 8.7 33.5 19.6 36.5 8.9 2.4 19.4-2.9 26.6-13.4 20-29 41.2-45.1 63.2-47.8l0.6-0.1c1.6-0.2 3.2-0.5 4.8-0.6 15.9-1.4 30.5 2.9 41.1 12 11.4 10 18 25.5 19.1 45.1h-0.8c-1-19.3-7.6-34.7-18.9-44.4-10.4-9.1-24.7-13.3-40.5-11.9q-2.4 0.3-4.8 0.6l-0.5 0.1c-21.7 2.7-42.8 18.7-62.6 47.5-6.1 8.9-14.7 14.2-22.8 14.2z"/><path class="g" d="m296.2 334.3c-1.8 0-3.6-0.2-5.3-0.7-10.8-3.1-17.9-15.6-20-35.1-3.4-32.9-13.7-62.8-30.7-88.9-13.6-20.7-33.8-33.4-62.1-38.8-20-3.9-40.5 0.9-56.3 12.9-13.2 10.1-21.4 24-22.6 38.2l-0.8-0.1c1.2-14.5 9.5-28.7 22.8-38.8 16-12.2 36.8-17 57-13.1 28.5 5.4 49.1 18.2 62.7 39.1 17.1 26.2 27.5 56.2 30.9 89.3 2 19.2 8.9 31.4 19.4 34.4 8.9 2.6 19.2-1.9 26.8-11.7l0.2-0.3c9.5-12.1 31.8-40.7 61.5-45.6l1.4-0.3c1.2-0.1 2.4-0.4 3.6-0.6 15.3-2.1 29.6 1.4 40.1 10 5.5 4.5 9.9 10.2 13.1 16.9 3.5 7.4 5.6 16 6.2 25.7l-0.8 0.1c-1.2-18.5-7.8-33-18.9-42-10.4-8.5-24.4-11.9-39.4-9.8-1.3 0.2-2.4 0.4-3.7 0.6l-1.3 0.3c-29.5 4.9-51.6 33.3-61.1 45.4l-0.2 0.2c-6.5 8.1-14.7 12.7-22.5 12.7z"/><path class="h" d="m295.4 335.6c-2 0-3.9-0.3-5.8-0.9-10.4-3.2-17.5-14.9-19.9-33.1-4-30.8-14.2-59.7-30.4-86.2-12.2-20.3-31.2-33.3-58-39.8-19.1-4.6-39-0.9-54.5 10.1-12.9 9.1-21.1 22.4-22.5 36.2l-0.8-0.1c1.4-14.1 9.7-27.5 22.9-36.8 15.7-11.1 35.8-14.9 55.1-10.2 27 6.5 46.2 19.7 58.5 40.2 16.2 26.5 26.5 55.6 30.5 86.5 2.3 17.7 9.1 29.3 19.3 32.4 8.6 2.6 18.9-1.3 26.9-10.2 0.5-0.6 1.1-1.4 1.8-2.1 10.3-11.8 32-36.4 58.6-42 0.7-0.2 1.3-0.2 1.9-0.4 1-0.2 1.9-0.5 2.8-0.6 14.4-2.9 28.7 0 39.1 7.9 11.2 8.4 18 22.3 19.5 40.2l-0.8 0.1c-1.5-17.6-8.1-31.4-19.1-39.6-10.2-7.8-24.3-10.6-38.5-7.8-0.8 0.2-1.8 0.4-2.7 0.7-0.6 0.1-1.3 0.2-2 0.4-26.3 5.5-47.8 30-58.1 41.8-0.7 0.7-1.3 1.4-1.8 2-6.5 7.3-14.5 11.3-22 11.3z"/><path class="i" d="m294.9 336.8c-2.2 0-4.4-0.3-6.5-1.1-7.2-2.3-16.3-9.5-19.9-31-4.6-28.2-14.1-54.7-30-83.3-11-20-28.7-33.3-53.9-40.8-18.3-5.4-37.4-2.8-52.6 7.2-12.7 8.4-20.9 20.8-22.6 34.2l-0.8-0.1c1.7-13.7 10-26.3 22.9-34.7 15.4-10.1 34.9-12.7 53.4-7.3 25.5 7.5 43.2 21 54.4 41.1 15.8 28.3 25.5 55.7 30.1 83.7 3.5 21 12.4 28.1 19.2 30.3 8.5 2.8 18.7-0.4 27-8.6 1.2-1.1 2.4-2.4 3.8-3.9 11.9-12 31.7-32 55.2-38.3 0.9-0.2 1.7-0.4 2.6-0.7q0.9-0.2 1.8-0.5c13.8-3.6 27.7-1.5 38.2 5.9 11.1 7.7 17.9 20.7 19.6 37.9l-0.8 0.1c-1.7-16.8-8.4-29.7-19.2-37.3-10.3-7.1-24-9.3-37.5-5.7q-0.9 0.3-1.9 0.5c-0.8 0.3-1.7 0.5-2.6 0.7-23.2 6.1-42.9 26.1-54.7 38-1.5 1.5-2.8 2.8-4 3.9-6.4 6.4-14 9.8-21.2 9.8z"/><path class="j" d="m294.5 338.1c-2.5 0-5-0.3-7.3-1.1-6.8-2.3-15.7-9.3-19.6-29-6.4-31.7-18.6-58.6-29.7-80.6-10-19.9-25.8-33.1-49.8-41.7-17.5-6.3-36.1-4.7-50.9 4.2-12.4 7.5-20.6 19.2-22.5 32.2l-0.8-0.1c2-13.2 10.3-25.1 23-32.8 15-9 33.9-10.6 51.5-4.2 24.2 8.7 40.2 22 50.3 42.1 11.1 22.1 23.4 49 29.8 80.9 3.8 19.2 12.5 26.1 19.1 28.3 8.3 2.9 18.4 0.2 27-7.1 1.9-1.6 4-3.6 6.5-5.8 12.3-11.1 30.7-27.9 51.2-34.4 0.9-0.2 1.7-0.6 2.5-0.8q0.8-0.3 1.6-0.6c12.9-4.2 26.8-2.9 37.2 3.7 11 7 17.9 19.2 19.9 35.5l-0.8 0.1c-2-16-8.7-28.1-19.6-34.9-10.2-6.5-23.8-7.8-36.4-3.6q-0.8 0.3-1.6 0.5c-0.8 0.3-1.7 0.7-2.6 0.9-20.2 6.5-38.6 23.2-50.8 34.2-2.4 2.2-4.6 4.2-6.4 5.8-6.6 5.4-14 8.3-20.8 8.3z"/><path class="k" d="m294.1 339.5c-2.8 0-5.6-0.5-8.1-1.4-6.6-2.4-15.2-9-19.6-26.9-6.9-28.7-18.7-54.8-29.2-77.8l-0.1-0.1c-8.9-19.7-23.4-33.2-45.7-42.7-16.6-7.1-34.6-6.7-49.1 1.2-12.2 6.7-20.4 17.6-22.5 30.2l-0.8-0.2c2.1-12.8 10.5-24.1 22.9-30.8 14.8-8.1 33-8.5 49.8-1.3 22.5 9.6 37.2 23.3 46.2 43.1l0.1 0.2c10.5 23 22.3 49 29.2 77.8 3.4 13.9 10 23 19 26.4 8.3 3 18.4 0.9 27.2-5.6 2.8-2.2 6.2-4.9 10-8 12.2-10 28.9-23.6 46.2-30.2 1.2-0.5 2.2-0.9 3.3-1.3l0.6-0.3c12.1-5.1 25.6-4.5 36.2 1.4 7.6 4.4 17.4 13.7 20.1 33.3l-0.8 0.1c-2.7-19.3-12.2-28.4-19.8-32.7-10.3-5.8-23.5-6.4-35.3-1.4l-0.7 0.3c-1 0.4-2.2 0.9-3.3 1.4-17.2 6.6-33.8 20.1-45.9 30.1-3.9 3.2-7.2 5.9-10.2 8-6.2 4.7-13.1 7.2-19.7 7.2z"/><path class="l" d="m294.1 340.9c-3.2 0-6.4-0.5-9.3-1.7-9-3.5-15.7-12.1-19.4-24.9-5.9-20.1-13.9-39-21.6-57.3-2.6-6.1-5-11.9-7.4-17.8-10.3-25.4-28.7-37.1-41.6-43.7-15.9-8.1-33.1-8.7-47.4-1.7-11.9 5.8-20 16.1-22.4 28.3l-0.8-0.2c2.4-12.4 10.8-22.9 23-28.8 14.4-7.1 32-6.5 48 1.7 13.1 6.7 31.6 18.6 42 44.2 2.4 5.8 4.8 11.6 7.4 17.6 7.7 18.3 15.7 37.3 21.6 57.5 3.6 12.6 10.2 21 19 24.3 8.2 3.1 18.1 1.7 27.1-4 4.3-2.6 9.4-6.5 15.4-10.9 11.4-8.4 25.6-19 39.4-25.4q1.4-0.7 2.7-1.3l1-0.6c11.1-5.7 24.5-6 35-0.7 7.7 3.8 17.4 12.4 20.5 31l-0.8 0.2c-3.1-18.4-12.6-26.6-20-30.4-10.3-5.1-23.5-4.9-34.3 0.7l-1 0.6q-1.3 0.6-2.6 1.3c-13.8 6.4-27.9 16.9-39.3 25.3-5.9 4.4-11.1 8.3-15.4 11-6.2 3.7-12.6 5.7-18.8 5.7z"/><path class="m" d="m294.3 342.3c-3.7 0-7.3-0.6-10.6-1.9-8.7-3.5-15.3-11.4-19.4-22.9-4.5-12.8-9.8-25.6-14.9-37.9-4.7-11.3-9.6-23-13.7-34.5-6.8-19.2-18.7-33.4-37.5-44.8-14.9-8.9-31.5-10.7-45.5-4.7-11.7 5-19.8 14.6-22.4 26.3l-0.8-0.2c2.6-12 11-21.8 22.9-26.9 14.2-6.1 31.1-4.3 46.3 4.8 18.9 11.5 31 25.8 37.9 45.1 4.1 11.6 8.9 23.2 13.7 34.5 5.1 12.3 10.3 25 14.9 37.9 4 11.5 10.4 19 18.9 22.4 8.2 3.2 18 2.3 27.3-2.5 6.5-3.5 14.9-9.2 23.7-15.3 9.7-6.7 19.9-13.7 29.6-19.1q1.4-0.8 2.7-1.6l0.7-0.4c10.3-6.5 23.4-7.7 34-3 13.8 5.9 18.8 18.9 20.7 28.7l-0.8 0.2c-3.3-17.4-12.8-24.9-20.2-28.1-10.5-4.6-23.2-3.4-33.3 2.9l-0.7 0.4q-1.3 0.8-2.6 1.6c-9.8 5.5-19.9 12.4-29.7 19.1-8.8 6.2-17.1 11.8-23.8 15.4-5.8 3-11.7 4.5-17.4 4.5z"/><path class="n" d="m294.7 343.9c-4.3 0-8.4-0.8-12.2-2.3-8.5-3.5-15-10.5-19.4-20.9-2.6-6.4-5.5-12.9-8.3-19.3-7.1-16.3-14.5-33.1-19.9-50.5-6-19.1-16.5-33.7-33.4-45.7-14-10-30-12.9-43.8-7.7-11.3 4.2-19.5 13-22.4 24.4l-0.8-0.2c3-11.6 11.3-20.7 23-24.9 14-5.2 30.2-2.3 44.4 7.9 17.1 12.1 27.8 26.8 33.8 46.2 5.3 17.3 12.7 34.1 19.8 50.3 2.7 6.3 5.7 12.9 8.3 19.3 4.3 10.2 10.7 17.1 19 20.4 8.1 3.3 17.8 2.9 27.2-1.1 11.1-4.7 25.3-14.4 39.1-23.8 4.5-3 8.7-5.9 12.9-8.7 0.9-0.6 1.7-1.2 2.5-1.8l0.5-0.4c9.3-7.1 22.2-9.2 32.9-5.2 10.7 3.9 18.2 13.3 21 26.5l-0.8 0.2c-2.8-13-10-22.1-20.4-25.9-10.5-3.8-23.1-1.8-32.2 5.1l-0.4 0.4c-0.8 0.6-1.7 1.3-2.7 1.9-4.2 2.8-8.4 5.6-12.9 8.7-13.7 9.4-28 19.1-39.1 23.9-5.2 2.2-10.5 3.2-15.7 3.2z"/><path class="o" d="m295.5 345.6c-12.5 0-25.4-5.7-33.3-21.7l-0.8-1.5c-10.3-20.4-20.9-41.5-27.1-65.3-5-19-14.6-34.3-29.3-46.7-13.1-11.1-28.4-15-41.9-10.9-10.9 3.4-19.3 11.8-22.3 22.6l-0.8-0.3c3.2-11 11.7-19.7 23-23.1 13.7-4.1 29.3-0.2 42.6 10.9 14.9 12.6 24.6 28 29.6 47.2 6.2 23.8 16.7 44.8 27 65.2l0.8 1.5c10.9 21.8 31 24.1 46.2 18.9 17.8-5.9 39.3-21.7 50.5-30.5 0.9-0.7 1.8-1.5 2.6-2.3l0.2-0.2c8.3-7.8 21.1-10.9 31.9-7.6 10.6 3.2 18.2 11.8 21.3 24.4l-0.8 0.2c-3-12.2-10.4-20.7-20.7-23.8-10.5-3.1-23-0.2-31.1 7.4l-0.2 0.2c-0.8 0.8-1.6 1.6-2.6 2.3-11.3 8.9-33 24.7-50.8 30.6-4.5 1.6-9.2 2.5-14 2.5z"/><path class="p" d="m296.4 347.5c-14.6 0-27.3-7.2-35.3-20.4-10.6-17.3-22-38.5-27.5-64.1-4-19.3-12.3-34.9-25.2-47.8-12-12-26.6-17.1-39.9-13.9-10.8 2.6-19.1 10.4-22.5 20.7l-0.8-0.3c3.5-10.6 12.1-18.6 23.1-21.3 13.7-3.3 28.5 1.9 40.8 14.1 13 13 21.3 28.8 25.3 48.2 5.5 25.5 16.9 46.6 27.4 63.9 14.7 24.2 39.1 20.2 46.3 18.5 15.4-3.8 34.7-15 49.1-28.6 0.8-0.8 1.6-1.7 2.5-2.7 7.3-8.4 19.8-12.4 30.8-9.9 10.5 2.4 18.3 10.3 21.6 22.2l-0.8 0.2c-3.3-11.6-10.7-19.2-21-21.5-10.7-2.5-22.8 1.4-30 9.6-0.9 1-1.7 1.9-2.5 2.7-14.5 13.7-33.9 25-49.6 28.9-4 0.9-7.9 1.5-11.8 1.5z"/><path class="q" d="m298.5 349.3c-15.5 0-29.4-6.8-38.6-19.1-14.7-19.8-23.6-39.9-27.1-61.4-3.1-19.4-10.3-35.8-21.1-48.8-11-13.1-24.9-19.3-38.1-17-10.5 1.9-19 9-22.5 18.9l-0.8-0.3c3.7-10.3 12.3-17.5 23.1-19.4 13.5-2.4 27.7 3.9 38.8 17.3 11 13.1 18.2 29.6 21.4 49.1 3.4 21.3 12.3 41.4 27 61.1 10.5 14.2 27.8 21 46.2 18 17.3-2.7 36-13.2 47.7-26.6 0.8-0.9 1.5-1.9 2.2-2.8 6.4-9 18.7-14.1 29.8-12.3 10.5 1.7 18.3 8.8 21.8 20.1l-0.8 0.2c-3.4-10.9-11-17.8-21.2-19.4-10.8-1.7-22.7 3.2-28.9 11.9-0.8 1-1.5 1.9-2.3 2.9-11.9 13.6-30.8 24.2-48.2 26.9-2.7 0.6-5.6 0.7-8.4 0.7z"/><path class="r" d="m301.1 351.6c-16.3 0-31.5-6.5-42.2-18.2-15-16-24.5-36.9-26.8-58.7-2.4-19.9-8.1-36.6-17.1-49.7-9.8-14.2-23-21.6-36.1-20.1-10.2 1.1-18.9 7.7-22.7 17.1l-0.8-0.4c3.9-9.7 12.9-16.5 23.5-17.6 13.5-1.5 26.9 5.9 36.8 20.5 9.1 13.1 14.8 30 17.1 50.1 2.4 21.5 11.9 42.2 26.6 58.2 11.5 12.5 28.4 19 46.4 17.7 18.8-1.4 36.5-10.8 46.3-24.6 0.6-0.9 1.3-1.9 2-3 5.5-9.6 17.3-15.7 28.7-14.7 10.3 0.9 18.4 7.5 22.1 18l-0.7 0.2c-2.2-5.9-7.8-16.1-21.5-17.4-11.1-1-22.6 4.9-27.9 14.2-0.7 1.2-1.4 2.2-2 3.1-9.9 14.1-27.9 23.7-46.9 25.1-1.6 0.1-3.2 0.2-4.8 0.2z"/><path class="s" d="m305.2 354.1c-4.1 0-8.5-0.3-12.9-1.1-15.4-2.8-29.7-10.5-40.3-21.8-12.1-12.9-19.2-30.4-20.7-50.4-4.3-62.3-32.3-72-40.8-73.5-12.2-2.2-24.2 3.9-29.1 14.9l-0.8-0.4c5-11.3 17.4-17.7 30-15.4 8.6 1.5 37.2 11.4 41.5 74.3 1.4 19.9 8.5 37.2 20.5 50 10.4 11.1 24.6 18.7 39.7 21.5 26.3 4.7 50-5.4 58.8-25 4.7-10.3 16.1-17.2 27.8-17 10.2 0.2 18.3 5.9 22.3 15.8l-0.8 0.3c-3.8-9.5-11.6-15.1-21.5-15.2-11.4-0.2-22.4 6.5-27 16.5-7.4 16.6-25.4 26.5-46.7 26.5z"/><path class="t" d="m351.7 286.5h3.5v18.8h-3.5z"/><path class="t" d="m445 286.5h3.6v18.8h-3.6z"/><path class="u" d="m355.2 283.2h89.8v25.6h-89.8z"/><path fill-rule="evenodd" class="t" d="m354.8 282.7h90.6v26.4h-90.6zm0.9 25.6h88.9v-24.7h-88.9z"/><path class="v" d="m359.1 286.7h82.1v18.4h-82.1z"/><path class="v" d="m360.1 308.7h80v3.5h-80z"/><path fill-rule="evenodd" class="t" d="m359.7 308.2h80.9v4.5h-80.9zm0.8 3.6h79.2v-2.8h-79.2z"/><path class="t" d="m363.7 291.9h2v1.9h-2z"/><path class="t" d="m363.7 297.9h2v2h-2z"/><path class="t" d="m366.5 294.7h2v2h-2z"/><path class="t" d="m368.9 291.9h1.9v1.9h-1.9z"/><path class="t" d="m368.9 297.9h1.9v2h-1.9z"/><path class="t" d="m371.5 294.7h1.9v2h-1.9z"/><path class="t" d="m374.5 291.9h1.9v1.9h-1.9z"/><path class="t" d="m374.5 297.9h1.9v2h-1.9z"/><path class="t" d="m377.1 294.7h1.9v2h-1.9z"/><path class="t" d="m380.2 291.9h1.9v1.9h-1.9z"/><path class="t" d="m380.2 297.9h1.9v2h-1.9z"/><path class="t" d="m382.7 294.7h1.9v2h-1.9z"/><path class="t" d="m385.3 291.9h2v1.9h-2z"/><path class="t" d="m385.3 297.9h2v2h-2z"/><path class="t" d="m387.6 294.7h2v2h-2z"/><path class="t" d="m390.5 291.9h1.9v1.9h-1.9z"/><path class="t" d="m390.5 297.9h1.9v2h-1.9z"/><path class="t" d="m392.6 294.7h2v2h-2z"/><circle class="t" cx="434.6" cy="295.9" r="2.5"/><path class="t" d="m401.4 295.5h26.1v0.7h-26.1z"/><path class="t" d="m351.7 315.6h3.5v18.8h-3.5z"/><path class="t" d="m445 315.6h3.6v18.8h-3.6z"/><path class="v" d="m360.1 337.8h80v3.5h-80z"/><path fill-rule="evenodd" class="t" d="m359.7 337.3h80.9v4.5h-80.9zm0.8 3.6h79.2v-2.7h-79.2z"/><path class="u" d="m355.2 312.3h89.8v25.6h-89.8z"/><path fill-rule="evenodd" class="t" d="m354.8 311.9h90.6v26.3h-90.6zm0.9 25.6h88.9v-24.8h-88.9z"/><path class="v" d="m359.1 315.9h82.1v18.3h-82.1z"/><path class="t" d="m363.7 321.1h2v2h-2z"/><path class="t" d="m363.7 327h2v2h-2z"/><path class="t" d="m366.5 323.8h2v2h-2z"/><path class="t" d="m368.9 321.1h1.9v2h-1.9z"/><path class="t" d="m368.9 327h1.9v2h-1.9z"/><path class="t" d="m371.5 323.8h1.9v2h-1.9z"/><path class="t" d="m374.5 321.1h1.9v2h-1.9z"/><path class="t" d="m374.5 327h1.9v2h-1.9z"/><path class="t" d="m377.1 323.8h1.9v2h-1.9z"/><path class="t" d="m380.2 321.1h1.9v2h-1.9z"/><path class="t" d="m380.2 327h1.9v2h-1.9z"/><path class="t" d="m382.7 323.8h1.9v2h-1.9z"/><path class="t" d="m385.3 321.1h2v2h-2z"/><path class="t" d="m385.3 327h2v2h-2z"/><path class="t" d="m387.6 323.8h2v2h-2z"/><path class="t" d="m390.5 321.1h1.9v2h-1.9z"/><path class="t" d="m390.5 327h1.9v2h-1.9z"/><path class="t" d="m392.6 323.8h2v2h-2z"/><circle class="t" cx="434.6" cy="325.1" r="2.5"/><path class="t" d="m401.4 324.6h26.1v0.8h-26.1z"/><path fill-rule="evenodd" class="u" d="m205.1 229.8v103.6h-173.5v-103.6c0-4.3 3.6-7.9 7.9-7.9h157.6c4.3 0.1 7.9 3.6 8 7.9z"/><path fill-rule="evenodd" class="t" d="m205.5 333.8h-174.3v-104c0.1-4.5 3.8-8.3 8.3-8.3h157.6c4.5 0 8.2 3.8 8.3 8.3zm-173.4-0.8h172.5v-103.2c-0.1-4.1-3.4-7.4-7.5-7.4h-157.6c-4 0-7.4 3.3-7.5 7.4z"/><circle class="t" cx="118.4" cy="228.3" r="1.4"/><path fill-rule="evenodd" class="v" d="m212 341.4h-187.3c-9.8 0-16.3-1.5-16.3-2.9v-4.3c0.1-0.5 0.5-0.8 1-0.8h217.9c0.5 0 0.9 0.2 1 0.8v4.4c-0.1 1.1-5.1 2.8-16.3 2.8z"/><path fill-rule="evenodd" class="t" d="m212 341.8h-187.3c-8.3 0-16.7-1.2-16.7-3.4v-4.3c0.1-0.7 0.7-1.3 1.4-1.2h217.9c0.7-0.1 1.3 0.5 1.4 1.2v4.5c0 1.9-6.9 3.2-16.7 3.2zm-202.7-8c-0.2 0-0.4 0.2-0.5 0.4v4.3c0 0.7 4.9 2.5 15.9 2.5h187.3c11.8 0 15.8-1.8 15.9-2.4v-4.4c0-0.2-0.3-0.4-0.6-0.4z"/><path class="u" d="m228.2 338.3h-219.8v-4.1c0.1-0.6 0.6-0.8 1-0.8h217.9c0.5 0 0.8 0.3 0.9 0.8z"/><path fill-rule="evenodd" class="t" d="m212 341.8h-187.3c-8.3 0-16.7-1.2-16.7-3.4v-4.3c0.1-0.7 0.7-1.3 1.4-1.2h217.9c0.7-0.1 1.3 0.5 1.4 1.2v4.5c0 1.9-6.9 3.2-16.7 3.2zm-202.7-8c-0.2 0-0.4 0.2-0.5 0.4v4.3c0 0.7 4.9 2.5 15.9 2.5h187.3c11.8 0 15.8-1.8 15.9-2.4v-4.4c0-0.2-0.3-0.4-0.6-0.4z"/><path class="v" d="m38.6 234.3h159.2v92.7h-159.2z"/><path fill-rule="evenodd" class="t" d="m142.2 333.7v1c0 0.7-1.4 0.9-2.4 0.9h-42.7c-1.1 0-2.5-0.2-2.5-0.9v-1"/><path class="t" d="m38.8 234.4h158.6v6.6h-158.6z"/><path fill-rule="evenodd" class="t" d="m38.5 234.2h159.3v7.2h-159.3zm0.7 6.5h158v-5.9h-158z"/><circle class="v" cx="44.1" cy="237.7" r="1.2"/><circle class="v" cx="48.1" cy="237.7" r="1.2"/><circle class="v" cx="52" cy="237.7" r="1.2"/><circle class="v" cx="116.7" cy="275.8" r="22.9"/><path class="t" d="m124 271.7q-0.4-1.6-0.6-3.2c-4.2 0.3-10.5-1.9-12.3-3.3l0.2-0.3c1.8 1.3 8.2 3.6 12.3 3.3h0.2v0.1c0.1 1.2 0.3 2.3 0.5 3.4z"/><path class="a" d="m126.4 268.3c0.4 0.7 2.9 1.2 2.9 3.4 0 2.2-1.9 3.4-2.1 5.2-0.3 1.7 0.3 2.7 3.3 4.4 4.2 2.4 3.7 9-2.3 10.3 0 0-6.6-2.7-8-4.7v-6.1l-8.5-0.1v6.5c-1.9 2.1-7.9 4.8-10.2 6.1-1-1.1-1.5-2.4-1.3-3.8 0.1-2.5 6.4-4.5 6.4-5.9 0-1.4-3.1-4.5-3.1-6.8 0-2.3 4-4.4 4-8.9 0-7.7 7.8-7.5 8.5-7.5 8.4 0 9.6 6.6 10.4 7.9z"/><path fill-rule="evenodd" class="a" d="m101.4 293.6l-0.1-0.1c-0.9-1.1-1.5-2.5-1.4-4 0.1-1.5 2.1-2.8 4-3.9 1.2-0.7 2.4-1.4 2.4-2 0-0.5-0.6-1.5-1.2-2.5-0.9-1.4-1.9-3-1.9-4.3 0-1.1 0.7-2 1.5-3.1 1.2-1.5 2.5-3.2 2.5-5.8 0-2.3 0.7-4.1 1.9-5.4 2.1-2.1 5.1-2.3 6.7-2.3 0 0 0 0 0.1 0 7.4 0 9.3 4.8 10.2 7.1 0.2 0.4 0.3 0.7 0.5 0.9 0 0.1 0.4 0.3 0.8 0.6 0.8 0.5 2.1 1.3 2.1 2.9 0 1.4-0.6 2.2-1.2 3.1-0.4 0.7-0.8 1.3-0.9 2.1-0.3 1.6 0.1 2.5 3.1 4.2 2.1 1.2 3.2 3.4 2.9 5.6-0.4 2.5-2.3 4.5-5.2 5.1h-0.2c-0.3-0.1-6.7-2.8-8-4.8v-6l-8.2-0.1v6.4l-0.1 0.1c-1.5 1.5-5.2 3.5-8 4.9-0.9 0.5-1.7 0.9-2.2 1.3zm14.5-33.1c-1.3 0-4.5 0.3-6.5 2.3-1.2 1.2-1.9 2.9-1.9 5.1 0 2.8-1.4 4.6-2.5 6-0.8 1.1-1.5 2-1.5 2.9 0 1.2 0.9 2.7 1.8 4.1 0.7 1.1 1.3 2 1.3 2.7 0 0.7-1.1 1.4-2.6 2.3-1.7 1-3.7 2.3-3.8 3.6-0.1 1.3 0.3 2.6 1.1 3.5 0.6-0.3 1.4-0.7 2.2-1.1 2.6-1.4 6.3-3.3 7.8-4.9v-6.7l8.9 0.1v6.2c1.4 1.9 7.1 4.3 7.8 4.6 2.6-0.7 4.5-2.4 4.8-4.7 0.3-2.2-0.7-4.2-2.6-5.3-2.9-1.6-3.7-2.6-3.5-4.6 0.1-0.8 0.6-1.5 1-2.1 0.5-0.9 1.1-1.7 1.1-3 0-1.4-1-2-1.9-2.5-0.4-0.3-0.8-0.5-1-0.7-0.2-0.2-0.2-0.6-0.4-1-0.6-2.1-2.5-6.8-9.6-6.8z"/><path class="u" d="m108.1 289.7c1.2-0.7 2.5-1.5 3.5-2.5v-6.5l8.6 0.1v6.1c0.3 0.8 1.8 1.7 3.8 2.8q-3.9 2.1-8.3 2.1c-2.6 0.1-5.3-0.6-7.6-2.1z"/><path fill-rule="evenodd" class="a" d="m115.7 292.1c-2.7 0-5.4-0.8-7.7-2.3l-0.3-0.1 0.4-0.2c1.2-0.7 2.4-1.5 3.4-2.5v-6.6l9 0.1v6.3c0.4 0.7 1.8 1.6 3.7 2.7l0.4 0.2-0.4 0.1c-2.6 1.5-5.5 2.3-8.5 2.3zm-7.2-2.4c2.2 1.3 4.7 2 7.2 2 0 0 0 0 0.1 0 2.8 0 5.4-0.7 7.8-2-1.9-1-3.2-1.9-3.5-2.6v-6l-8.2-0.1v6.4h-0.1c-1 0.8-2.1 1.6-3.3 2.3z"/><path class="t" d="m101.8 293.3c2.1-1.3 4.4-2.4 6.4-3.5 2.3 1.5 4.9 2.2 7.7 2.2 2.8-0.1 5.7-0.8 8.3-2.3 2.4 1.2 4.6 2.6 6.7 4.2-4.1 3.2-9.1 4.9-14.2 4.9-5.5-0.1-10.8-2-14.9-5.5z"/><path fill-rule="evenodd" class="a" d="m116.8 299q-0.1 0 0 0c-5.6 0-10.9-2-15.1-5.6l-0.2-0.2 0.3-0.2c1.2-0.8 2.6-1.4 3.8-2.1 0.9-0.4 1.7-0.9 2.5-1.3l0.1-0.1 0.1 0.1c2.2 1.3 4.8 2.1 7.4 2.1h0.1c2.8-0.1 5.7-0.8 8.2-2.1l0.1-0.1 0.1 0.1c2.4 1.1 4.7 2.5 6.8 4.1l0.2 0.2-0.2 0.1c-4 3.2-9.1 5-14.2 5zm-14.7-5.8c4.1 3.5 9.3 5.3 14.6 5.3h0.1c5 0 9.8-1.6 13.7-4.7-2-1.5-4.1-2.8-6.3-3.9-2.6 1.4-5.5 2.2-8.4 2.2-2.7 0-5.3-0.8-7.7-2.2-0.8 0.5-1.6 0.9-2.4 1.3-1.2 0.7-2.4 1.4-3.6 2z"/><path class="u" d="m124.4 268.9c-0.1 3.3-0.9 6.5-2.2 9.5-1.1 2-3.8 4.2-6.3 4.2-2.5 0-5-2.2-6.3-4.2-1.7-2.6-2.2-7.3-2.2-9.5 0-4.7 3.8-8.5 8.5-8.5 4.7 0 8.5 3.8 8.5 8.5z"/><path fill-rule="evenodd" class="a" d="m115.9 282.8c-2.6 0-5.2-2.4-6.5-4.3-1.7-2.5-2.3-7.1-2.3-9.6 0-2.3 0.9-4.5 2.6-6.1 1.7-1.7 3.8-2.6 6.1-2.6 4.8 0 8.7 3.9 8.7 8.7-0.1 3.3-0.9 6.6-2.2 9.5-1.1 2.1-3.8 4.4-6.4 4.4zm0-22.2c-2.2 0-4.3 0.9-5.9 2.4-1.6 1.6-2.4 3.7-2.4 5.9 0 2.4 0.7 6.9 2.3 9.3 1.4 2 3.8 4.2 6.1 4.2 2.3 0 5-2.2 6.1-4.2 1.3-2.9 2.1-6.1 2.2-9.4-0.1-4.5-3.8-8.2-8.4-8.2z"/><path class="a" d="m124.2 271.6c-0.3-1.1-0.5-2.2-0.6-3.3-4.2 0.3-10.6-2-12.4-3.3 0 0-1.6 6.2-3.5 7.4-0.2-1.1-0.2-2.4-0.2-3.5 0-4.7 3.8-8.5 8.5-8.5 4.7 0 8.5 3.8 8.5 8.5-0.1 1-0.2 1.8-0.3 2.7z"/><path fill-rule="evenodd" class="a" d="m107.5 272.8v-0.4c-0.2-1.1-0.3-2.4-0.3-3.5 0-4.8 3.9-8.7 8.7-8.7 4.8 0 8.7 3.9 8.7 8.7 0 0.9-0.1 1.8-0.3 2.7l0.1 0.2-0.5 0.2 0.1-0.4c-0.3-0.9-0.5-2-0.6-3.1-4 0.3-10-1.8-12-3.2-0.4 1.3-1.8 6.2-3.5 7.3zm8.4-12.2c-4.7 0-8.3 3.8-8.3 8.3q0 1.6 0.3 3.2c1.6-1.6 3.1-7.1 3.1-7.1l0.1-0.3 0.2 0.2c1.8 1.3 8.2 3.6 12.3 3.3h0.2v0.2q0.1 1 0.2 2.1c0.1-0.5 0.1-1 0.1-1.5 0-4.7-3.7-8.4-8.2-8.4z"/><path class="u" d="m124.1 272.4c0.1-0.7 0.9-1.1 1.7-0.9 1.1 0.3 0.5 4.1-2.5 4 0.3-0.9 0.5-2 0.8-3.1z"/><path fill-rule="evenodd" class="a" d="m123.4 275.8c0 0 0 0-0.1 0h-0.3l0.1-0.3c0.3-0.9 0.5-2 0.7-3.1 0.2-0.8 1.1-1.3 2-1.1 0.6 0.2 0.8 0.9 0.7 1.8-0.3 1.3-1.3 2.7-3.1 2.7zm0.8-3.3c-0.1 1-0.4 2-0.7 2.9 1.7-0.1 2.3-1.5 2.5-2.4 0.1-0.7 0-1.3-0.2-1.4h-0.1c-0.7-0.1-1.3 0.3-1.5 0.9z"/><path class="u" d="m108.4 275.5c-2.9 0.1-3.3-3.7-2.5-4h0.1c0.7-0.2 1.5 0.2 1.7 0.9 0.2 1.1 0.4 2.2 0.7 3.1z"/><path fill-rule="evenodd" class="a" d="m108.3 275.8c-1.7 0-2.6-1.2-3-2.5-0.1-0.8-0.1-1.8 0.5-2 0.1 0 0.1 0 0.1 0 0.8-0.3 1.7 0.2 1.9 1.1 0.2 1.1 0.4 2.1 0.7 3.1l0.1 0.3c0 0-0.3 0-0.3 0zm-1.9-4.2c-0.1 0-0.2 0-0.4 0h-0.1c-0.2 0.1-0.3 0.8-0.1 1.5 0.2 1 0.9 2.1 2.4 2.2-0.3-1-0.5-1.9-0.7-2.9-0.1-0.4-0.7-0.8-1.1-0.8z"/><path fill-rule="evenodd" class="t" d="m116.7 299.2c-12.9 0-23.4-10.5-23.4-23.4 0-12.9 10.5-23.3 23.4-23.3 12.9 0 23.4 10.4 23.4 23.3 0 12.9-10.5 23.4-23.4 23.4zm22.5-23.4c0-12.4-10.1-22.5-22.5-22.5-12.4 0-22.5 10.1-22.5 22.5 0 12.4 10.1 22.5 22.5 22.5 12.4 0 22.5-10.1 22.5-22.5z"/><path class="v" d="m96 303.2h41.3v14.4h-41.3z"/><path fill-rule="evenodd" class="t" d="m95.6 302.8h42.1v15.3h-42.1zm0.8 14.4h40.5v-13.5h-40.5z"/><path class="w" d="m107.2 311l-1.9 1.1-0.3-0.6 1.8-1.1-1.8-1 0.3-0.6 1.9 1.1-0.1-2.1h0.7l-0.1 2.1 1.9-1.1 0.3 0.6-1.8 1 1.8 1.1-0.3 0.6-1.9-1.1 0.1 2.1h-0.7z"/><path class="w" d="m113.3 311l-1.8 1.1-0.4-0.6 1.9-1.1-1.9-1 0.4-0.6 1.8 1.1-0.1-2.1h0.7v2.1l1.8-1.1 0.4 0.6-1.9 1 1.9 1.1-0.4 0.6-1.8-1.1v2.1h-0.7z"/><path class="w" d="m119.4 311l-1.7 1.1-0.4-0.6 1.9-1.1-1.9-1 0.4-0.6 1.8 1.1-0.1-2.1h0.8l-0.1 2.1 1.8-1.1 0.4 0.6-2 1 1.9 1.1-0.4 0.6-1.8-1.1 0.1 2.1h-0.7z"/><path class="w" d="m125.7 311l-1.9 1.1-0.4-0.6 1.9-1.1-1.9-1 0.4-0.6 1.9 1.1-0.1-2.1h0.7l-0.1 2.1 1.9-1.1 0.3 0.6-1.8 1 1.8 1.1-0.3 0.6-1.9-1.1 0.1 2.1h-0.7z"/></svg>